<svg version="1.1" id="Layer_1" xmlns="http://www.w3.org/2000/svg" xmlns:xlink="http://www.w3.org/1999/xlink" x="0px" y="0px"
	 width="100%" viewBox="0 0 1376 768" enable-background="new 0 0 1376 768" xml:space="preserve">
<path fill="#0E0E0E" opacity="1.000000" stroke="none" 
	d="
M984.000000,769.000000 
	C656.038147,769.000000 328.576233,769.000000 1.057185,769.000000 
	C1.057185,513.067932 1.057185,257.135864 1.057185,1.101886 
	C459.545349,1.101886 918.090759,1.101886 1376.818115,1.101886 
	C1376.818115,256.999908 1376.818115,512.999939 1376.818115,769.000000 
	C1246.135620,769.000000 1115.317749,769.000000 984.000000,769.000000 
M838.343994,201.996292 
	C838.800964,201.951111 839.257935,201.905945 840.105591,202.358536 
	C843.713501,209.847000 847.348755,217.322479 850.924744,224.826141 
	C869.882629,264.606659 888.871460,304.372650 907.688782,344.219574 
	C909.224854,347.472351 911.043762,348.437134 914.476074,348.376648 
	C926.139160,348.170868 937.809387,348.189880 949.473572,348.357666 
	C952.512634,348.401367 954.142090,347.603973 955.523743,344.696045 
	C978.500916,296.337250 1001.615417,248.043732 1024.717529,199.744400 
	C1025.133301,198.875137 1025.772461,198.112701 1026.307373,197.300415 
	C1026.591675,197.405853 1026.875854,197.511292 1027.160034,197.616730 
	C1027.160034,260.016968 1027.160034,322.417236 1027.160034,384.644043 
	C1044.448242,384.644043 1061.343506,384.644043 1078.228027,384.644043 
	C1078.228027,292.369629 1078.228027,200.446381 1078.228027,108.231567 
	C1058.064209,108.231567 1038.248779,108.151642 1018.437134,108.392502 
	C1016.950073,108.410591 1014.871643,110.421272 1014.109070,112.006462 
	C992.629089,156.659058 971.287231,201.378113 949.912720,246.081451 
	C944.073975,258.292877 938.203186,270.488922 932.025208,283.362823 
	C931.188904,281.700562 930.678955,280.729156 930.205750,279.740173 
	C903.517395,223.960663 876.819885,168.185501 850.185425,112.380280 
	C848.968872,109.831490 847.994141,108.079094 844.512390,108.120934 
	C825.681702,108.347229 806.847107,108.236961 788.013916,108.270287 
	C787.066223,108.271965 786.118958,108.529915 785.248169,108.657318 
	C785.248169,200.836273 785.248169,292.759125 785.248169,384.719086 
	C802.444519,384.719086 819.351990,384.719086 836.692505,384.719086 
	C836.692505,382.158661 836.692261,379.855652 836.692627,377.552643 
	C836.700378,325.219513 836.700012,272.886383 836.727112,220.553253 
	C836.730347,214.395660 836.884705,208.238129 838.343994,201.996292 
M661.466064,389.034058 
	C666.446411,388.681091 671.465881,388.610870 676.400574,387.927856 
	C702.228821,384.352875 723.016174,372.812775 736.091370,349.441620 
	C744.833618,333.815308 746.708862,316.609528 746.752991,299.198486 
	C746.910889,236.885208 746.800232,174.571259 746.774353,112.257568 
	C746.773804,110.998138 746.568665,109.738785 746.450134,108.377716 
	C728.797363,108.377716 711.509827,108.377716 693.753052,108.377716 
	C693.753052,110.495720 693.753113,112.468300 693.753052,114.440887 
	C693.750977,173.089066 693.775879,231.737289 693.710205,290.385406 
	C693.702576,297.209045 693.405945,304.048706 692.874573,310.852173 
	C691.494446,328.519257 683.563538,339.387726 668.939148,342.440948 
	C663.043091,343.671875 656.642883,343.683990 650.634888,342.938538 
	C637.259216,341.278992 628.370972,333.576202 625.074219,320.422668 
	C623.520813,314.225006 623.268494,307.701263 622.408020,301.184204 
	C605.091248,301.184204 587.414673,301.184204 570.082703,301.184204 
	C570.082703,305.916931 569.766663,310.265289 570.133545,314.555206 
	C572.720764,344.805939 586.697144,367.473175 614.731018,380.506744 
	C629.221008,387.243469 644.678040,389.153625 661.466064,389.034058 
M443.433502,171.906357 
	C442.217163,175.529068 441.283600,179.279892 439.714600,182.742798 
	C437.641998,187.317291 438.047729,191.453598 439.732727,196.122223 
	C446.106171,213.781174 452.060211,231.591217 458.212524,249.330414 
	C461.847534,259.811493 465.560059,270.265686 469.371643,281.113037 
	C447.667328,281.113037 426.537567,281.113037 405.088226,281.113037 
	C400.338593,294.941406 395.626556,308.660339 390.780426,322.769714 
	C420.486969,322.769714 449.464844,322.873566 478.440369,322.657593 
	C482.779419,322.625244 484.732147,323.714600 486.183990,327.995117 
	C492.634369,347.013123 499.542114,365.875977 506.280609,384.784119 
	C524.572327,384.784119 542.658691,384.784119 561.260803,384.784119 
	C528.443665,295.310883 495.755585,206.189468 462.738220,116.170349 
	C456.180878,135.184448 449.971893,153.188370 443.433502,171.906357 
M380.115784,307.683014 
	C403.253510,241.460236 426.391205,175.237442 449.694885,108.539612 
	C447.386536,108.394218 446.085938,108.242485 444.785248,108.241127 
	C431.288422,108.227043 417.789642,108.365402 404.296143,108.155190 
	C400.683838,108.098915 399.080566,109.273224 397.890747,112.688065 
	C391.976013,129.663879 385.786713,146.544220 379.667206,163.448456 
	C353.717560,235.130569 327.757111,306.808777 301.809692,378.491699 
	C301.101013,380.449463 300.495178,382.444489 299.652405,384.993774 
	C317.278992,384.993774 334.091797,385.076874 350.899567,384.823853 
	C352.140808,384.805176 353.929993,382.572845 354.479889,381.020813 
	C363.040497,356.858612 371.438568,332.638794 380.115784,307.683014 
M721.806213,533.316895 
	C723.229431,530.414856 724.652649,527.512878 726.075806,524.610840 
	C726.393372,524.683167 726.710876,524.755432 727.028442,524.827759 
	C727.028442,546.638245 727.028442,568.448730 727.028442,590.237427 
	C733.503418,590.237427 739.432678,590.237427 745.418213,590.237427 
	C745.418213,557.201782 745.418213,524.486816 745.418213,491.366058 
	C739.468201,491.366058 733.814941,491.620544 728.198547,491.275940 
	C724.496399,491.048706 722.573486,492.289490 720.974609,495.641388 
	C712.316406,513.791687 703.421143,531.828918 694.592102,549.897461 
	C694.055054,550.996582 693.383667,552.029968 692.555664,553.476990 
	C682.835876,533.718994 673.411743,514.471924 663.850037,495.293396 
	C663.069519,493.727905 661.412415,491.572052 660.058105,491.493530 
	C653.314453,491.102417 646.535706,491.314850 639.780273,491.314850 
	C639.780273,524.744629 639.780273,557.466980 639.780273,590.335205 
	C646.059204,590.335205 651.974731,590.335205 658.624939,590.335205 
	C658.624939,568.701233 658.624939,547.317932 658.624939,525.934570 
	C666.532104,539.784119 674.033936,553.481262 680.263916,567.734436 
	C683.453247,575.030823 687.520447,577.578369 695.200378,576.777832 
	C699.005737,576.381104 700.985962,575.472717 702.649048,571.955200 
	C708.687073,559.184509 715.120300,546.600647 721.806213,533.316895 
M897.500000,437.335052 
	C698.237366,437.335052 498.974731,437.335052 299.491760,437.335052 
	C299.491760,439.304169 299.491760,440.699860 299.491760,442.635986 
	C301.905823,442.635986 304.039124,442.636078 306.172455,442.635986 
	C490.312225,442.629150 674.451965,442.617432 858.591736,442.617981 
	C930.081238,442.618195 1001.570801,442.647919 1073.060303,442.656006 
	C1076.310303,442.656372 1080.380859,443.380035 1077.896240,437.337952 
	C1018.100769,437.337952 958.300415,437.337952 897.500000,437.335052 
M341.778564,491.378052 
	C338.789368,491.504761 335.874146,490.578339 334.300079,494.969391 
	C323.319550,525.601074 312.013092,556.115906 300.829163,586.674866 
	C300.404022,587.836426 300.164551,589.066040 299.747009,590.600281 
	C305.621704,590.600281 310.955597,590.819702 316.249420,590.456116 
	C317.688782,590.357239 319.692322,588.782471 320.260406,587.401184 
	C322.467529,582.034607 324.361176,576.521667 326.045135,570.964355 
	C326.926849,568.054504 328.416779,567.176331 331.396362,567.227234 
	C341.547699,567.400879 351.707062,567.415405 361.856750,567.190430 
	C365.136383,567.117737 366.488495,568.308533 367.448456,571.322510 
	C369.505951,577.782471 371.991516,584.106140 374.256439,590.360352 
	C381.031708,590.360352 387.451782,590.360352 394.320648,590.360352 
	C393.886780,588.952026 393.612061,587.875793 393.227783,586.840149 
	C383.179901,559.762329 373.134216,532.683594 363.050446,505.619171 
	C361.315857,500.963593 360.636169,494.623779 357.239471,492.242676 
	C353.856079,489.870880 347.667450,491.500824 341.778564,491.378052 
M502.892395,527.602173 
	C490.417389,516.208435 470.868103,514.606506 456.639709,523.812012 
	C442.944366,532.672668 437.220612,551.191467 442.928253,568.174622 
	C448.377686,584.389526 462.925598,593.221436 481.836212,591.964417 
	C492.886414,591.229919 507.638855,583.073486 510.588623,568.262695 
	C506.067566,568.262695 501.572205,568.434875 497.097504,568.204956 
	C493.865295,568.038879 491.722382,568.886353 489.585236,571.623169 
	C485.379059,577.009644 477.340546,578.236877 470.391144,575.289795 
	C463.542084,572.385254 459.598816,566.295105 460.201111,559.061279 
	C477.570587,559.061279 494.980011,559.061279 512.487915,559.061279 
	C513.552429,547.227844 511.461975,536.790344 502.892395,527.602173 
M895.545715,536.778198 
	C900.368958,540.667114 900.851746,546.181946 900.899048,551.720215 
	C901.008362,564.510254 900.933716,577.301758 900.933716,590.224915 
	C907.374756,590.224915 913.453552,590.224915 919.319397,590.224915 
	C919.319397,574.412964 919.777466,558.933228 919.168823,543.495483 
	C918.713806,531.953125 913.170715,522.884583 901.502258,519.484497 
	C889.410034,515.961060 878.395691,517.960266 870.027344,528.432739 
	C869.599182,528.968445 868.927002,529.309326 868.195984,529.874146 
	C867.627014,526.334412 867.127991,523.229797 866.589050,519.876648 
	C861.228394,519.876648 855.985535,519.876648 850.658203,519.876648 
	C850.658203,543.513672 850.658203,566.884705 850.658203,590.344604 
	C856.937927,590.344604 862.867188,590.344604 869.208679,590.344604 
	C869.208679,585.106689 869.129333,580.134216 869.226196,575.165100 
	C869.397888,566.351746 868.938721,557.443359 870.083191,548.751160 
	C871.804810,535.674866 883.210083,530.314392 895.545715,536.778198 
M945.823608,527.310608 
	C938.543274,533.926514 935.205566,542.327332 934.334351,551.978088 
	C932.770447,569.302185 942.686218,585.069153 958.528076,590.153870 
	C975.766541,595.686890 994.071228,589.174744 1002.368408,574.557007 
	C1011.194763,559.006775 1007.700989,537.075134 994.662292,526.183777 
	C981.227905,514.961670 960.755676,515.246033 945.823608,527.310608 
M763.094360,534.505737 
	C763.119690,544.165527 762.894653,553.833862 763.223572,563.483276 
	C763.865112,582.300049 776.227722,593.531189 794.201294,591.938782 
	C802.407166,591.211853 808.765625,587.096497 814.121826,580.050781 
	C814.803162,584.088806 815.341003,587.276123 815.846619,590.272827 
	C821.565979,590.272827 826.690247,590.272827 831.886475,590.272827 
	C831.886475,566.640991 831.886475,543.264099 831.886475,519.846985 
	C825.629272,519.846985 819.709717,519.846985 813.401489,519.846985 
	C813.401489,531.437561 813.516724,542.733398 813.336975,554.024597 
	C813.276672,557.809204 813.002197,561.749756 811.885681,565.325562 
	C809.414001,573.241394 802.286743,577.229492 793.864197,576.063293 
	C786.915649,575.101196 782.384399,569.358643 782.023743,561.014832 
	C781.951782,559.351868 781.968323,557.684448 781.967712,556.019104 
	C781.963562,544.045410 781.965515,532.071716 781.965515,519.835999 
	C775.570862,519.835999 769.474365,519.835999 763.091797,519.835999 
	C763.091797,524.555725 763.091797,529.032349 763.094360,534.505737 
M592.280701,587.333862 
	C584.440552,576.397156 576.600464,565.460449 568.636841,554.351440 
	C576.942200,542.920410 585.159973,531.609863 593.859192,519.636719 
	C588.680969,519.636719 584.479065,520.091125 580.417664,519.529541 
	C574.422974,518.700623 570.983215,521.159363 568.068115,526.179871 
	C564.543396,532.250122 560.215942,537.854370 555.941101,544.090454 
	C550.811951,536.373108 546.294067,529.400208 541.547302,522.586792 
	C540.637634,521.281067 538.866089,519.841797 537.425293,519.767883 
	C531.335144,519.455444 525.219788,519.635559 518.199829,519.635559 
	C526.887085,531.728027 535.069336,543.117493 543.269104,554.531433 
	C534.709595,566.470032 526.280701,578.226379 517.437012,590.561401 
	C523.950623,590.561401 529.279236,590.369629 534.585388,590.631958 
	C537.872864,590.794373 539.641663,589.460510 541.342773,586.779724 
	C545.934387,579.544006 550.867615,572.525024 555.972046,564.965759 
	C561.328674,572.947693 566.247986,580.400513 571.335571,587.736694 
	C572.171021,588.941284 573.712830,590.378662 574.984985,590.435364 
	C581.222473,590.713745 587.479126,590.561707 594.351318,590.561707 
	C593.557617,589.241028 593.159485,588.578552 592.280701,587.333862 
M1035.502686,590.579102 
	C1049.611206,590.579102 1063.719727,590.579102 1078.065918,590.579102 
	C1078.065918,585.179565 1078.065918,580.260986 1078.065918,574.769531 
	C1065.705566,574.769531 1053.553101,574.769531 1040.815552,574.769531 
	C1051.226562,563.090698 1060.575439,551.517700 1071.123779,541.167236 
	C1077.722656,534.692200 1077.628906,527.742188 1076.922607,519.893860 
	C1057.590698,519.893860 1038.514282,519.893860 1019.431702,519.893860 
	C1019.431702,524.980591 1019.431702,529.752441 1019.431702,535.104126 
	C1031.159912,535.104126 1042.650879,535.104126 1055.010986,535.104126 
	C1044.348511,546.986389 1034.847778,558.586853 1024.223389,569.045898 
	C1017.510254,575.654602 1018.753662,582.754761 1019.153015,590.578674 
	C1024.553833,590.578674 1029.529297,590.578674 1035.502686,590.579102 
M406.587006,563.499573 
	C406.587006,572.431702 406.587006,581.363831 406.587006,590.240356 
	C413.151764,590.240356 419.078674,590.240356 425.085449,590.240356 
	C425.085449,556.388550 425.085449,522.846863 425.085449,489.348236 
	C418.813446,489.348236 412.891174,489.348236 407.047455,489.348236 
	C406.867920,489.909698 406.681274,490.221558 406.680756,490.533752 
	C406.640533,514.522339 406.614990,538.510925 406.587006,563.499573 
M498.287201,678.891785 
	C497.386261,672.240784 491.975708,671.970825 487.096802,671.111816 
	C483.967346,670.560913 480.778229,670.348816 477.615875,669.984863 
	C477.584778,669.281921 477.553650,668.578918 477.522522,667.875977 
	C479.150970,667.536926 480.776428,666.921143 482.408325,666.903442 
	C493.776764,666.780029 498.123779,661.336121 495.449249,650.279297 
	C497.036957,650.064087 498.612213,649.850525 500.187439,649.636963 
	C500.412109,649.135559 500.636749,648.634216 500.861389,648.132812 
	C499.755157,647.432800 498.705078,646.262390 497.531982,646.122314 
	C494.239624,645.729248 490.880188,645.922607 487.577087,645.588928 
	C482.008759,645.026489 476.709351,645.307861 473.466614,650.663269 
	C470.379364,655.761841 472.069611,660.464722 475.598999,664.583740 
	C473.972717,667.563049 467.164215,669.286011 473.794586,673.571167 
	C467.435669,681.815369 470.269653,688.828674 480.511139,690.200684 
	C483.109619,690.548767 485.840698,690.512146 488.438263,690.142334 
	C494.798981,689.236694 497.495697,686.218567 498.287201,678.891785 
M649.669373,640.544922 
	C649.669373,637.946228 649.669373,635.347473 649.669373,632.282654 
	C647.370605,632.443787 645.840332,632.551025 644.480225,632.646362 
	C644.480225,647.648315 644.480225,662.049805 644.480225,678.009216 
	C647.094543,676.214417 648.739746,675.084900 650.642273,673.778748 
	C657.998291,678.630981 665.784302,678.648438 671.063721,673.321045 
	C676.159119,668.179626 676.966980,657.645813 672.737549,651.498352 
	C668.067932,644.711060 661.178406,643.867981 649.675903,649.001892 
	C649.675903,646.337830 649.675903,643.906250 649.669373,640.544922 
M327.945435,676.655762 
	C330.582520,677.148254 331.438019,676.036987 331.406616,673.406006 
	C331.249695,660.251648 331.243073,647.095520 331.149323,633.940308 
	C331.146179,633.503723 330.774994,633.069763 330.437500,632.334106 
	C329.058441,632.452881 327.664246,632.572998 326.050476,632.711975 
	C326.050476,635.756287 326.050507,638.405640 326.050507,641.055054 
	C326.050507,643.762634 326.050476,646.470154 326.050476,649.614563 
	C317.489471,643.729492 309.586761,644.009155 304.185669,649.879761 
	C299.012543,655.502441 298.542725,666.318176 303.792206,671.981628 
	C305.915192,674.272034 309.218018,676.646118 312.094666,676.791504 
	C316.686340,677.023438 321.370514,675.425293 326.306244,674.549316 
	C326.251129,674.435059 326.736420,675.441345 327.945435,676.655762 
M828.135925,655.499878 
	C828.135925,647.908997 828.135925,640.318054 828.135925,632.370972 
	C826.046997,632.485168 824.647339,632.561707 822.832886,632.660889 
	C822.832886,638.378052 822.832886,643.748047 822.832886,649.371155 
	C813.988647,643.735718 806.060913,644.101624 800.863464,650.087219 
	C795.738525,655.989441 795.826294,666.922852 801.045227,672.715881 
	C806.383789,678.641663 814.511292,678.849060 821.486572,674.013611 
	C823.799683,675.210449 825.566528,676.124634 828.140808,677.456604 
	C828.140808,669.453979 828.140808,662.976868 828.135925,655.499878 
M1073.677246,673.174377 
	C1082.050537,661.768250 1077.624756,647.011353 1064.983154,645.617310 
	C1060.801270,645.156128 1056.314697,647.457947 1052.257446,648.427124 
	C1051.128418,647.690735 1049.494263,646.625000 1047.148682,645.095154 
	C1047.148682,660.855896 1047.148682,675.212036 1047.148682,689.908081 
	C1048.988525,689.703674 1050.392212,689.547729 1052.180420,689.349060 
	C1052.180420,683.802124 1052.180420,678.595215 1052.180420,673.151489 
	C1061.106567,678.599915 1066.337769,678.672913 1073.677246,673.174377 
M980.877258,646.221619 
	C979.355347,647.127625 977.833435,648.033630 975.565063,649.384033 
	C975.565063,643.406433 975.565063,638.053162 975.565063,632.358765 
	C973.489807,632.485596 972.065857,632.572632 970.446045,632.671692 
	C970.446045,647.399902 970.446045,661.794861 970.446045,676.376465 
	C972.240906,676.376465 973.769470,676.376465 975.708191,676.376465 
	C975.708191,670.540527 975.515808,665.061462 975.759338,659.601929 
	C976.032288,653.480957 979.646362,649.841309 984.915527,649.844421 
	C990.027161,649.847473 992.267212,652.574524 992.435425,659.426758 
	C992.573303,665.044861 992.463501,670.669067 992.463501,676.766602 
	C994.579712,676.626709 996.109192,676.525635 997.807617,676.413391 
	C997.807617,675.048096 997.808960,674.228027 997.807312,673.407959 
	C997.797058,668.246277 997.931396,663.079285 997.744202,657.923950 
	C997.386353,648.071411 991.454224,643.735229 980.877258,646.221619 
M355.424713,649.945557 
	C350.573334,655.865295 350.304077,662.429138 353.105255,669.183044 
	C355.414581,674.751038 360.801697,677.662659 367.280487,677.366272 
	C373.917786,677.062622 377.493011,674.388855 379.337402,667.389099 
	C377.207062,667.916687 375.030212,668.623535 373.535553,670.046814 
	C370.371948,673.059204 366.903900,673.784607 363.005646,672.234680 
	C358.901001,670.602783 356.982941,667.457703 357.191498,662.506714 
	C365.185394,662.506714 372.920593,662.506714 380.588562,662.506714 
	C381.292725,654.909180 378.887970,649.547180 373.479004,646.927368 
	C367.157928,643.865906 361.225739,644.633240 355.424713,649.945557 
M529.011658,651.191528 
	C536.716614,648.026489 541.139099,650.608643 541.495667,658.698181 
	C541.737427,664.182373 541.613770,669.682373 541.700378,675.174561 
	C541.707092,675.603638 542.083618,676.026917 542.425293,676.737915 
	C543.803284,676.609009 545.194641,676.478821 546.761047,676.332214 
	C546.761047,669.458679 547.052124,662.969849 546.685425,656.518372 
	C546.253662,648.923096 540.888733,644.246948 533.730164,645.387451 
	C530.483459,645.904724 527.481140,647.955688 525.368652,648.875305 
	C523.475281,647.634338 521.906250,646.606018 519.584534,645.084290 
	C519.584534,656.470581 519.584534,666.380127 519.584534,676.405029 
	C521.457275,676.405029 523.002563,676.405029 524.881592,676.405029 
	C524.881592,670.926941 524.473938,665.744568 525.033264,660.668762 
	C525.373108,657.585205 527.206604,654.666199 529.011658,651.191528 
M944.957520,654.833496 
	C946.204895,654.757385 947.452271,654.681274 948.875671,654.594421 
	C948.143188,649.505371 945.468140,646.805176 940.920593,645.756287 
	C935.901184,644.598572 931.211060,645.075134 927.600037,649.053528 
	C924.206482,652.792114 925.378662,658.670898 930.013123,660.791748 
	C932.841431,662.086060 936.044922,662.547119 939.058044,663.454895 
	C941.766479,664.270935 945.004944,664.913147 944.335571,668.775879 
	C943.691895,672.490234 940.534546,673.446655 937.443909,672.877808 
	C935.205566,672.465759 933.198730,670.781189 931.096436,669.649536 
	C929.149292,668.601318 927.212585,667.533875 924.546814,666.079712 
	C925.277466,678.057922 941.312012,679.791809 947.052063,674.568787 
	C952.012268,670.055298 950.570374,662.265503 944.257202,660.038757 
	C940.980591,658.883057 937.457031,658.401794 934.232117,657.138306 
	C932.982971,656.648804 931.276978,654.593811 931.506104,653.689636 
	C931.868835,652.258240 933.489868,650.515991 934.922852,650.104492 
	C939.082947,648.910095 942.449707,650.289978 944.957520,654.833496 
M419.070435,667.629089 
	C417.631134,669.364685 416.202972,672.526367 414.750275,672.537659 
	C411.767395,672.560974 408.689362,671.089417 405.809113,669.861145 
	C403.824646,669.014832 402.106781,667.543518 400.269745,666.351562 
	C400.061890,672.461731 403.004944,675.561096 407.457703,676.702637 
	C412.557434,678.009949 417.858795,678.107117 422.031250,674.060303 
	C426.303375,669.916687 424.892883,662.650879 419.388672,660.396851 
	C416.639313,659.270996 413.450104,659.140259 410.815826,657.838806 
	C408.927490,656.905884 407.629883,654.777222 406.068756,653.182007 
	C408.200531,652.045227 410.270508,650.194397 412.484100,650.002869 
	C414.185486,649.855591 416.057800,651.815552 417.872498,652.804749 
	C419.397583,653.636169 420.949188,654.418884 423.230011,655.610107 
	C422.039307,648.190918 418.327545,645.207397 411.913849,645.235657 
	C405.573578,645.263611 400.912964,648.609009 400.461243,653.456299 
	C400.029022,658.094543 402.713501,660.741394 409.773285,662.611450 
	C410.576752,662.824341 411.485138,662.792053 412.201202,663.156067 
	C414.478760,664.313843 416.688416,665.605225 419.070435,667.629089 
M717.075562,656.465271 
	C717.063782,658.458984 717.106628,660.454834 717.030151,662.446106 
	C716.780884,668.934692 713.295410,672.947815 708.044250,672.856018 
	C703.030762,672.768372 700.388916,669.447327 700.250061,662.745911 
	C700.137451,657.309143 700.227234,651.868225 700.227234,645.996582 
	C698.112549,646.106873 696.608032,646.185364 695.048340,646.266785 
	C695.048340,653.153015 694.818176,659.470032 695.104065,665.763672 
	C695.500122,674.481934 702.330933,679.321655 710.655212,676.827576 
	C712.892822,676.157166 714.832764,674.493347 715.987305,673.821838 
	C717.994202,675.074707 719.604919,676.080322 721.886475,677.504639 
	C721.886475,666.128235 721.886475,656.231873 721.886475,646.004883 
	C720.196960,646.088562 718.814636,646.157043 717.076355,646.243164 
	C717.076355,649.571777 717.076355,652.535278 717.075562,656.465271 
M771.785889,661.495911 
	C771.785889,666.430359 771.785889,671.364807 771.785889,676.432800 
	C773.815491,676.432800 775.215088,676.432800 776.809937,676.432800 
	C776.809937,661.753113 776.809937,647.355347 776.809937,632.695435 
	C775.054993,632.695435 773.541443,632.695435 771.786377,632.695435 
	C771.786377,642.214172 771.786377,651.355957 771.785889,661.495911 
M749.051819,646.417786 
	C747.512451,646.329102 745.973083,646.240417 744.394104,646.149475 
	C744.394104,656.652161 744.394104,666.527283 744.394104,676.803406 
	C746.288208,676.693787 747.824158,676.604858 749.464050,676.509949 
	C749.464050,666.402100 749.464050,656.795715 749.051819,646.417786 
M1019.363647,648.951355 
	C1019.363647,658.068115 1019.363647,667.184814 1019.363647,676.779541 
	C1021.443420,676.654907 1022.969482,676.563416 1024.406494,676.477295 
	C1024.406494,666.060791 1024.406494,656.175598 1024.406494,644.863708 
	C1022.132141,646.310181 1020.756897,647.184814 1019.363647,648.951355 
M450.572327,648.961182 
	C450.565796,644.455322 447.703339,646.366028 445.462463,646.268799 
	C445.462463,656.603760 445.462463,666.486145 445.462463,676.437134 
	C447.169006,676.437134 448.583191,676.437134 450.570587,676.437134 
	C450.570587,667.401489 450.570587,658.638916 450.572327,648.961182 
M595.490540,664.391418 
	C599.362671,663.711121 601.776978,661.529236 600.278687,657.605591 
	C599.658936,655.982605 596.837891,654.151794 595.156372,654.276794 
	C593.467896,654.402283 591.092651,656.577698 590.548828,658.329773 
	C589.588867,661.422241 591.527710,663.606567 595.490540,664.391418 
M882.672424,659.394226 
	C881.057617,657.607788 879.724609,655.166260 877.713440,654.301147 
	C876.649841,653.843567 873.066467,656.034851 872.983948,657.197876 
	C872.829407,659.375916 873.763672,662.755615 875.376831,663.697876 
	C878.615723,665.589905 881.356995,663.756104 882.672424,659.394226 
M1025.746094,636.432373 
	C1024.367432,635.163574 1023.133362,633.604309 1021.522400,632.801636 
	C1021.034485,632.558533 1018.730591,634.338745 1018.641235,635.318237 
	C1018.523987,636.604858 1019.890930,639.208008 1020.415588,639.156738 
	C1022.190002,638.983521 1023.874268,637.888184 1025.746094,636.432373 
M444.295654,634.973816 
	C445.306549,636.541504 446.112152,638.341187 447.457123,639.531372 
	C447.845581,639.875061 450.506622,638.723572 450.835144,637.798950 
	C451.277313,636.554504 450.589996,633.622864 450.176392,633.582520 
	C448.371765,633.406860 446.490753,634.015808 444.295654,634.973816 
M749.119812,633.400024 
	C747.245422,633.761353 745.299683,633.949097 743.569092,634.660400 
	C743.291016,634.774658 743.532898,637.659058 744.335510,638.474182 
	C745.136047,639.287231 747.967163,639.617798 748.135620,639.278931 
	C748.950195,637.640076 749.167725,635.704346 749.119812,633.400024 
z"/>
<path fill="#F3F7F8" opacity="1.000000" stroke="none" 
	d="
M836.968994,202.080566 
	C836.884705,208.238129 836.730347,214.395660 836.727112,220.553253 
	C836.700012,272.886383 836.700378,325.219513 836.692627,377.552643 
	C836.692261,379.855652 836.692505,382.158661 836.692505,384.719086 
	C819.351990,384.719086 802.444519,384.719086 785.248169,384.719086 
	C785.248169,292.759125 785.248169,200.836273 785.248169,108.657318 
	C786.118958,108.529915 787.066223,108.271965 788.013916,108.270287 
	C806.847107,108.236961 825.681702,108.347229 844.512390,108.120934 
	C847.994141,108.079094 848.968872,109.831490 850.185425,112.380280 
	C876.819885,168.185501 903.517395,223.960663 930.205750,279.740173 
	C930.678955,280.729156 931.188904,281.700562 932.025208,283.362823 
	C938.203186,270.488922 944.073975,258.292877 949.912720,246.081451 
	C971.287231,201.378113 992.629089,156.659058 1014.109070,112.006462 
	C1014.871643,110.421272 1016.950073,108.410591 1018.437134,108.392502 
	C1038.248779,108.151642 1058.064209,108.231567 1078.228027,108.231567 
	C1078.228027,200.446381 1078.228027,292.369629 1078.228027,384.644043 
	C1061.343506,384.644043 1044.448242,384.644043 1027.160034,384.644043 
	C1027.160034,322.417236 1027.160034,260.016968 1027.160034,197.616730 
	C1026.875854,197.511292 1026.591675,197.405853 1026.307373,197.300415 
	C1025.772461,198.112701 1025.133301,198.875137 1024.717529,199.744400 
	C1001.615417,248.043732 978.500916,296.337250 955.523743,344.696045 
	C954.142090,347.603973 952.512634,348.401367 949.473572,348.357666 
	C937.809387,348.189880 926.139160,348.170868 914.476074,348.376648 
	C911.043762,348.437134 909.224854,347.472351 907.688782,344.219574 
	C888.871460,304.372650 869.882629,264.606659 850.924744,224.826141 
	C847.348755,217.322479 843.713501,209.847000 839.814148,201.733917 
	C838.825134,199.782700 838.127563,198.456116 837.429932,197.129532 
	C837.190674,197.198181 836.951355,197.266830 836.712097,197.335480 
	C836.797729,198.917175 836.883362,200.498871 836.968994,202.080566 
z"/>
<path fill="#F4F8F9" opacity="1.000000" stroke="none" 
	d="
M660.972839,389.038940 
	C644.678040,389.153625 629.221008,387.243469 614.731018,380.506744 
	C586.697144,367.473175 572.720764,344.805939 570.133545,314.555206 
	C569.766663,310.265289 570.082703,305.916931 570.082703,301.184204 
	C587.414673,301.184204 605.091248,301.184204 622.408020,301.184204 
	C623.268494,307.701263 623.520813,314.225006 625.074219,320.422668 
	C628.370972,333.576202 637.259216,341.278992 650.634888,342.938538 
	C656.642883,343.683990 663.043091,343.671875 668.939148,342.440948 
	C683.563538,339.387726 691.494446,328.519257 692.874573,310.852173 
	C693.405945,304.048706 693.702576,297.209045 693.710205,290.385406 
	C693.775879,231.737289 693.750977,173.089066 693.753052,114.440887 
	C693.753113,112.468300 693.753052,110.495720 693.753052,108.377716 
	C711.509827,108.377716 728.797363,108.377716 746.450134,108.377716 
	C746.568665,109.738785 746.773804,110.998138 746.774353,112.257568 
	C746.800232,174.571259 746.910889,236.885208 746.752991,299.198486 
	C746.708862,316.609528 744.833618,333.815308 736.091370,349.441620 
	C723.016174,372.812775 702.228821,384.352875 676.400574,387.927856 
	C671.465881,388.610870 666.446411,388.681091 660.972839,389.038940 
z"/>
<path fill="#F3F7F8" opacity="1.000000" stroke="none" 
	d="
M443.598206,171.549332 
	C449.971893,153.188370 456.180878,135.184448 462.738220,116.170349 
	C495.755585,206.189468 528.443665,295.310883 561.260803,384.784119 
	C542.658691,384.784119 524.572327,384.784119 506.280609,384.784119 
	C499.542114,365.875977 492.634369,347.013123 486.183990,327.995117 
	C484.732147,323.714600 482.779419,322.625244 478.440369,322.657593 
	C449.464844,322.873566 420.486969,322.769714 390.780426,322.769714 
	C395.626556,308.660339 400.338593,294.941406 405.088226,281.113037 
	C426.537567,281.113037 447.667328,281.113037 469.371643,281.113037 
	C465.560059,270.265686 461.847534,259.811493 458.212524,249.330414 
	C452.060211,231.591217 446.106171,213.781174 439.732727,196.122223 
	C438.047729,191.453598 437.641998,187.317291 439.714600,182.742798 
	C441.283600,179.279892 442.217163,175.529068 443.598206,171.549332 
z"/>
<path fill="#307FF2" opacity="1.000000" stroke="none" 
	d="
M379.994995,308.057678 
	C371.438568,332.638794 363.040497,356.858612 354.479889,381.020813 
	C353.929993,382.572845 352.140808,384.805176 350.899567,384.823853 
	C334.091797,385.076874 317.278992,384.993774 299.652405,384.993774 
	C300.495178,382.444489 301.101013,380.449463 301.809692,378.491699 
	C327.757111,306.808777 353.717560,235.130569 379.667206,163.448456 
	C385.786713,146.544220 391.976013,129.663879 397.890747,112.688065 
	C399.080566,109.273224 400.683838,108.098915 404.296143,108.155190 
	C417.789642,108.365402 431.288422,108.227043 444.785248,108.241127 
	C446.085938,108.242485 447.386536,108.394218 449.694885,108.539612 
	C426.391205,175.237442 403.253510,241.460236 379.994995,308.057678 
z"/>
<path fill="#F0F3F4" opacity="1.000000" stroke="none" 
	d="
M721.605347,533.631592 
	C715.120300,546.600647 708.687073,559.184509 702.649048,571.955200 
	C700.985962,575.472717 699.005737,576.381104 695.200378,576.777832 
	C687.520447,577.578369 683.453247,575.030823 680.263916,567.734436 
	C674.033936,553.481262 666.532104,539.784119 658.624939,525.934570 
	C658.624939,547.317932 658.624939,568.701233 658.624939,590.335205 
	C651.974731,590.335205 646.059204,590.335205 639.780273,590.335205 
	C639.780273,557.466980 639.780273,524.744629 639.780273,491.314850 
	C646.535706,491.314850 653.314453,491.102417 660.058105,491.493530 
	C661.412415,491.572052 663.069519,493.727905 663.850037,495.293396 
	C673.411743,514.471924 682.835876,533.718994 692.555664,553.476990 
	C693.383667,552.029968 694.055054,550.996582 694.592102,549.897461 
	C703.421143,531.828918 712.316406,513.791687 720.974609,495.641388 
	C722.573486,492.289490 724.496399,491.048706 728.198547,491.275940 
	C733.814941,491.620544 739.468201,491.366058 745.418213,491.366058 
	C745.418213,524.486816 745.418213,557.201782 745.418213,590.237427 
	C739.432678,590.237427 733.503418,590.237427 727.028442,590.237427 
	C727.028442,568.448730 727.028442,546.638245 727.028442,524.827759 
	C726.710876,524.755432 726.393372,524.683167 726.075806,524.610840 
	C724.652649,527.512878 723.229431,530.414856 721.605347,533.631592 
z"/>
<path fill="#3578CF" opacity="1.000000" stroke="none" 
	d="
M898.000000,437.336487 
	C958.300415,437.337952 1018.100769,437.337952 1077.896240,437.337952 
	C1080.380859,443.380035 1076.310303,442.656372 1073.060303,442.656006 
	C1001.570801,442.647919 930.081238,442.618195 858.591736,442.617981 
	C674.451965,442.617432 490.312225,442.629150 306.172455,442.635986 
	C304.039124,442.636078 301.905823,442.635986 299.491760,442.635986 
	C299.491760,440.699860 299.491760,439.304169 299.491760,437.335052 
	C498.974731,437.335052 698.237366,437.335052 898.000000,437.336487 
z"/>
<path fill="#F1F4F5" opacity="1.000000" stroke="none" 
	d="
M342.243683,491.377075 
	C347.667450,491.500824 353.856079,489.870880 357.239471,492.242676 
	C360.636169,494.623779 361.315857,500.963593 363.050446,505.619171 
	C373.134216,532.683594 383.179901,559.762329 393.227783,586.840149 
	C393.612061,587.875793 393.886780,588.952026 394.320648,590.360352 
	C387.451782,590.360352 381.031708,590.360352 374.256439,590.360352 
	C371.991516,584.106140 369.505951,577.782471 367.448456,571.322510 
	C366.488495,568.308533 365.136383,567.117737 361.856750,567.190430 
	C351.707062,567.415405 341.547699,567.400879 331.396362,567.227234 
	C328.416779,567.176331 326.926849,568.054504 326.045135,570.964355 
	C324.361176,576.521667 322.467529,582.034607 320.260406,587.401184 
	C319.692322,588.782471 317.688782,590.357239 316.249420,590.456116 
	C310.955597,590.819702 305.621704,590.600281 299.747009,590.600281 
	C300.164551,589.066040 300.404022,587.836426 300.829163,586.674866 
	C312.013092,556.115906 323.319550,525.601074 334.300079,494.969391 
	C335.874146,490.578339 338.789368,491.504761 342.243683,491.377075 
M339.813293,532.264771 
	C337.459045,538.789124 335.104797,545.313538 332.626923,552.180542 
	C342.183533,552.180542 351.230133,552.180542 360.749847,552.180542 
	C356.068787,538.854675 351.541870,525.967651 346.714813,512.226196 
	C344.246002,519.326904 342.129486,525.414368 339.813293,532.264771 
z"/>
<path fill="#F2F5F6" opacity="1.000000" stroke="none" 
	d="
M503.143921,527.857056 
	C511.461975,536.790344 513.552429,547.227844 512.487915,559.061279 
	C494.980011,559.061279 477.570587,559.061279 460.201111,559.061279 
	C459.598816,566.295105 463.542084,572.385254 470.391144,575.289795 
	C477.340546,578.236877 485.379059,577.009644 489.585236,571.623169 
	C491.722382,568.886353 493.865295,568.038879 497.097504,568.204956 
	C501.572205,568.434875 506.067566,568.262695 510.588623,568.262695 
	C507.638855,583.073486 492.886414,591.229919 481.836212,591.964417 
	C462.925598,593.221436 448.377686,584.389526 442.928253,568.174622 
	C437.220612,551.191467 442.944366,532.672668 456.639709,523.812012 
	C470.868103,514.606506 490.417389,516.208435 503.143921,527.857056 
M479.168610,532.987061 
	C468.025482,532.948853 460.958740,538.441406 460.284821,547.740601 
	C471.422516,547.740601 482.553833,547.740601 493.694489,547.740601 
	C493.167084,539.517456 489.160522,535.256104 479.168610,532.987061 
z"/>
<path fill="#F0F4F4" opacity="1.000000" stroke="none" 
	d="
M895.245972,536.531494 
	C883.210083,530.314392 871.804810,535.674866 870.083191,548.751160 
	C868.938721,557.443359 869.397888,566.351746 869.226196,575.165100 
	C869.129333,580.134216 869.208679,585.106689 869.208679,590.344604 
	C862.867188,590.344604 856.937927,590.344604 850.658203,590.344604 
	C850.658203,566.884705 850.658203,543.513672 850.658203,519.876648 
	C855.985535,519.876648 861.228394,519.876648 866.589050,519.876648 
	C867.127991,523.229797 867.627014,526.334412 868.195984,529.874146 
	C868.927002,529.309326 869.599182,528.968445 870.027344,528.432739 
	C878.395691,517.960266 889.410034,515.961060 901.502258,519.484497 
	C913.170715,522.884583 918.713806,531.953125 919.168823,543.495483 
	C919.777466,558.933228 919.319397,574.412964 919.319397,590.224915 
	C913.453552,590.224915 907.374756,590.224915 900.933716,590.224915 
	C900.933716,577.301758 901.008362,564.510254 900.899048,551.720215 
	C900.851746,546.181946 900.368958,540.667114 895.245972,536.531494 
z"/>
<path fill="#F2F5F7" opacity="1.000000" stroke="none" 
	d="
M946.098694,527.082520 
	C960.755676,515.246033 981.227905,514.961670 994.662292,526.183777 
	C1007.700989,537.075134 1011.194763,559.006775 1002.368408,574.557007 
	C994.071228,589.174744 975.766541,595.686890 958.528076,590.153870 
	C942.686218,585.069153 932.770447,569.302185 934.334351,551.978088 
	C935.205566,542.327332 938.543274,533.926514 946.098694,527.082520 
M963.464661,574.341492 
	C972.978943,577.963623 981.329712,575.238525 985.444641,566.813721 
	C989.233704,559.056152 989.313293,551.001343 985.537659,543.245422 
	C980.259399,532.403198 965.622742,530.802063 958.089478,540.005310 
	C950.539124,549.229492 951.747498,568.322083 963.464661,574.341492 
z"/>
<path fill="#F1F5F6" opacity="1.000000" stroke="none" 
	d="
M763.093079,534.007324 
	C763.091797,529.032349 763.091797,524.555725 763.091797,519.835999 
	C769.474365,519.835999 775.570862,519.835999 781.965515,519.835999 
	C781.965515,532.071716 781.963562,544.045410 781.967712,556.019104 
	C781.968323,557.684448 781.951782,559.351868 782.023743,561.014832 
	C782.384399,569.358643 786.915649,575.101196 793.864197,576.063293 
	C802.286743,577.229492 809.414001,573.241394 811.885681,565.325562 
	C813.002197,561.749756 813.276672,557.809204 813.336975,554.024597 
	C813.516724,542.733398 813.401489,531.437561 813.401489,519.846985 
	C819.709717,519.846985 825.629272,519.846985 831.886475,519.846985 
	C831.886475,543.264099 831.886475,566.640991 831.886475,590.272827 
	C826.690247,590.272827 821.565979,590.272827 815.846619,590.272827 
	C815.341003,587.276123 814.803162,584.088806 814.121826,580.050781 
	C808.765625,587.096497 802.407166,591.211853 794.201294,591.938782 
	C776.227722,593.531189 763.865112,582.300049 763.223572,563.483276 
	C762.894653,553.833862 763.119690,544.165527 763.093079,534.007324 
z"/>
<path fill="#F1F4F5" opacity="1.000000" stroke="none" 
	d="
M592.520996,587.625000 
	C593.159485,588.578552 593.557617,589.241028 594.351318,590.561707 
	C587.479126,590.561707 581.222473,590.713745 574.984985,590.435364 
	C573.712830,590.378662 572.171021,588.941284 571.335571,587.736694 
	C566.247986,580.400513 561.328674,572.947693 555.972046,564.965759 
	C550.867615,572.525024 545.934387,579.544006 541.342773,586.779724 
	C539.641663,589.460510 537.872864,590.794373 534.585388,590.631958 
	C529.279236,590.369629 523.950623,590.561401 517.437012,590.561401 
	C526.280701,578.226379 534.709595,566.470032 543.269104,554.531433 
	C535.069336,543.117493 526.887085,531.728027 518.199829,519.635559 
	C525.219788,519.635559 531.335144,519.455444 537.425293,519.767883 
	C538.866089,519.841797 540.637634,521.281067 541.547302,522.586792 
	C546.294067,529.400208 550.811951,536.373108 555.941101,544.090454 
	C560.215942,537.854370 564.543396,532.250122 568.068115,526.179871 
	C570.983215,521.159363 574.422974,518.700623 580.417664,519.529541 
	C584.479065,520.091125 588.680969,519.636719 593.859192,519.636719 
	C585.159973,531.609863 576.942200,542.920410 568.636841,554.351440 
	C576.600464,565.460449 584.440552,576.397156 592.520996,587.625000 
z"/>
<path fill="#F0F4F5" opacity="1.000000" stroke="none" 
	d="
M1035.003662,590.578857 
	C1029.529297,590.578674 1024.553833,590.578674 1019.153015,590.578674 
	C1018.753662,582.754761 1017.510254,575.654602 1024.223389,569.045898 
	C1034.847778,558.586853 1044.348511,546.986389 1055.010986,535.104126 
	C1042.650879,535.104126 1031.159912,535.104126 1019.431702,535.104126 
	C1019.431702,529.752441 1019.431702,524.980591 1019.431702,519.893860 
	C1038.514282,519.893860 1057.590698,519.893860 1076.922607,519.893860 
	C1077.628906,527.742188 1077.722656,534.692200 1071.123779,541.167236 
	C1060.575439,551.517700 1051.226562,563.090698 1040.815552,574.769531 
	C1053.553101,574.769531 1065.705566,574.769531 1078.065918,574.769531 
	C1078.065918,580.260986 1078.065918,585.179565 1078.065918,590.579102 
	C1063.719727,590.579102 1049.611206,590.579102 1035.003662,590.578857 
z"/>
<path fill="#F5F8F9" opacity="1.000000" stroke="none" 
	d="
M406.587646,562.999512 
	C406.614990,538.510925 406.640533,514.522339 406.680756,490.533752 
	C406.681274,490.221558 406.867920,489.909698 407.047455,489.348236 
	C412.891174,489.348236 418.813446,489.348236 425.085449,489.348236 
	C425.085449,522.846863 425.085449,556.388550 425.085449,590.240356 
	C419.078674,590.240356 413.151764,590.240356 406.587006,590.240356 
	C406.587006,581.363831 406.587006,572.431702 406.587646,562.999512 
z"/>
<path fill="#929BA2" opacity="1.000000" stroke="none" 
	d="
M498.315369,679.261047 
	C497.495697,686.218567 494.798981,689.236694 488.438263,690.142334 
	C485.840698,690.512146 483.109619,690.548767 480.511139,690.200684 
	C470.269653,688.828674 467.435669,681.815369 473.794586,673.571167 
	C467.164215,669.286011 473.972717,667.563049 475.598999,664.583740 
	C472.069611,660.464722 470.379364,655.761841 473.466614,650.663269 
	C476.709351,645.307861 482.008759,645.026489 487.577087,645.588928 
	C490.880188,645.922607 494.239624,645.729248 497.531982,646.122314 
	C498.705078,646.262390 499.755157,647.432800 500.861389,648.132812 
	C500.636749,648.634216 500.412109,649.135559 500.187439,649.636963 
	C498.612213,649.850525 497.036957,650.064087 495.449249,650.279297 
	C498.123779,661.336121 493.776764,666.780029 482.408325,666.903442 
	C480.776428,666.921143 479.150970,667.536926 477.522522,667.875977 
	C477.553650,668.578918 477.584778,669.281921 477.615875,669.984863 
	C480.778229,670.348816 483.967346,670.560913 487.096802,671.111816 
	C491.975708,671.970825 497.386261,672.240784 498.315369,679.261047 
M477.644501,675.940674 
	C474.957275,679.070740 474.130554,683.044922 478.240387,684.573730 
	C481.876648,685.926392 486.482635,685.147522 490.548157,684.547974 
	C491.609009,684.391541 493.071014,681.275635 492.846832,679.737976 
	C492.637177,678.300354 490.593567,676.337646 489.077637,676.042725 
	C485.574707,675.361267 481.902466,675.550171 477.644501,675.940674 
M491.262360,654.727722 
	C490.783569,653.694885 490.453583,651.885864 489.800781,651.760681 
	C486.617493,651.150391 482.996307,650.031128 480.244751,651.040466 
	C478.669128,651.618408 477.430817,656.101135 477.864655,658.495300 
	C478.572357,662.401001 482.393585,662.896851 485.850494,662.464661 
	C489.759796,661.975952 491.571503,659.498535 491.262360,654.727722 
z"/>
<path fill="#91999E" opacity="1.000000" stroke="none" 
	d="
M649.672607,641.009827 
	C649.675903,643.906250 649.675903,646.337830 649.675903,649.001892 
	C661.178406,643.867981 668.067932,644.711060 672.737549,651.498352 
	C676.966980,657.645813 676.159119,668.179626 671.063721,673.321045 
	C665.784302,678.648438 657.998291,678.630981 650.642273,673.778748 
	C648.739746,675.084900 647.094543,676.214417 644.480225,678.009216 
	C644.480225,662.049805 644.480225,647.648315 644.480225,632.646362 
	C645.840332,632.551025 647.370605,632.443787 649.669373,632.282654 
	C649.669373,635.347473 649.669373,637.946228 649.672607,641.009827 
M667.710205,669.036682 
	C668.375549,667.704041 669.262512,666.435425 669.669189,665.027954 
	C671.802246,657.646729 667.601807,650.472595 660.934326,649.930359 
	C656.113281,649.538330 652.175537,652.097839 650.490784,656.718750 
	C648.637878,661.800781 650.177063,667.880127 654.050049,670.776550 
	C658.080994,673.791321 662.491150,673.403748 667.710205,669.036682 
z"/>
<path fill="#949CA2" opacity="1.000000" stroke="none" 
	d="
M327.583588,676.551697 
	C326.736420,675.441345 326.251129,674.435059 326.306244,674.549316 
	C321.370514,675.425293 316.686340,677.023438 312.094666,676.791504 
	C309.218018,676.646118 305.915192,674.272034 303.792206,671.981628 
	C298.542725,666.318176 299.012543,655.502441 304.185669,649.879761 
	C309.586761,644.009155 317.489471,643.729492 326.050476,649.614563 
	C326.050476,646.470154 326.050507,643.762634 326.050507,641.055054 
	C326.050507,638.405640 326.050476,635.756287 326.050476,632.711975 
	C327.664246,632.572998 329.058441,632.452881 330.437500,632.334106 
	C330.774994,633.069763 331.146179,633.503723 331.149323,633.940308 
	C331.243073,647.095520 331.249695,660.251648 331.406616,673.406006 
	C331.438019,676.036987 330.582520,677.148254 327.583588,676.551697 
M324.084747,668.366516 
	C324.647797,666.990906 325.432037,665.662415 325.736511,664.231812 
	C327.223358,657.244995 323.528992,650.934387 317.524384,649.994995 
	C312.510742,649.210632 308.048279,651.736267 306.368011,656.309082 
	C304.383301,661.710449 306.133728,668.384521 310.275269,671.206970 
	C314.479431,674.072083 319.227600,673.294922 324.084747,668.366516 
z"/>
<path fill="#949CA2" opacity="1.000000" stroke="none" 
	d="
M828.138367,655.999817 
	C828.140808,662.976868 828.140808,669.453979 828.140808,677.456604 
	C825.566528,676.124634 823.799683,675.210449 821.486572,674.013611 
	C814.511292,678.849060 806.383789,678.641663 801.045227,672.715881 
	C795.826294,666.922852 795.738525,655.989441 800.863464,650.087219 
	C806.060913,644.101624 813.988647,643.735718 822.832886,649.371155 
	C822.832886,643.748047 822.832886,638.378052 822.832886,632.660889 
	C824.647339,632.561707 826.046997,632.485168 828.135925,632.370972 
	C828.135925,640.318054 828.135925,647.908997 828.138367,655.999817 
M816.351685,672.148743 
	C821.629089,669.141785 823.750366,664.794922 822.689697,658.881165 
	C821.854797,654.226196 819.481567,650.833557 814.509338,650.028076 
	C810.187439,649.328064 806.463806,650.577881 804.219971,654.482483 
	C801.622864,659.001892 801.619019,663.809509 804.347351,668.245361 
	C806.906616,672.406189 810.877258,673.664429 816.351685,672.148743 
z"/>
<path fill="#949DA4" opacity="1.000000" stroke="none" 
	d="
M1073.414429,673.437256 
	C1066.337769,678.672913 1061.106567,678.599915 1052.180420,673.151489 
	C1052.180420,678.595215 1052.180420,683.802124 1052.180420,689.349060 
	C1050.392212,689.547729 1048.988525,689.703674 1047.148682,689.908081 
	C1047.148682,675.212036 1047.148682,660.855896 1047.148682,645.095154 
	C1049.494263,646.625000 1051.128418,647.690735 1052.257446,648.427124 
	C1056.314697,647.457947 1060.801270,645.156128 1064.983154,645.617310 
	C1077.624756,647.011353 1082.050537,661.768250 1073.414429,673.437256 
M1059.286011,650.278137 
	C1052.796997,653.494263 1050.269897,660.093628 1053.095581,666.443726 
	C1055.472290,671.784851 1061.107056,674.185425 1066.329102,672.081482 
	C1071.826172,669.866638 1074.275269,662.766174 1071.773315,656.298401 
	C1069.954102,651.595520 1066.516846,649.771667 1059.286011,650.278137 
z"/>
<path fill="#91999E" opacity="1.000000" stroke="none" 
	d="
M981.256714,646.093384 
	C991.454224,643.735229 997.386353,648.071411 997.744202,657.923950 
	C997.931396,663.079285 997.797058,668.246277 997.807312,673.407959 
	C997.808960,674.228027 997.807617,675.048096 997.807617,676.413391 
	C996.109192,676.525635 994.579712,676.626709 992.463501,676.766602 
	C992.463501,670.669067 992.573303,665.044861 992.435425,659.426758 
	C992.267212,652.574524 990.027161,649.847473 984.915527,649.844421 
	C979.646362,649.841309 976.032288,653.480957 975.759338,659.601929 
	C975.515808,665.061462 975.708191,670.540527 975.708191,676.376465 
	C973.769470,676.376465 972.240906,676.376465 970.446045,676.376465 
	C970.446045,661.794861 970.446045,647.399902 970.446045,632.671692 
	C972.065857,632.572632 973.489807,632.485596 975.565063,632.358765 
	C975.565063,638.053162 975.565063,643.406433 975.565063,649.384033 
	C977.833435,648.033630 979.355347,647.127625 981.256714,646.093384 
z"/>
<path fill="#91999E" opacity="1.000000" stroke="none" 
	d="
M355.680023,649.675659 
	C361.225739,644.633240 367.157928,643.865906 373.479004,646.927368 
	C378.887970,649.547180 381.292725,654.909180 380.588562,662.506714 
	C372.920593,662.506714 365.185394,662.506714 357.191498,662.506714 
	C356.982941,667.457703 358.901001,670.602783 363.005646,672.234680 
	C366.903900,673.784607 370.371948,673.059204 373.535553,670.046814 
	C375.030212,668.623535 377.207062,667.916687 379.337402,667.389099 
	C377.493011,674.388855 373.917786,677.062622 367.280487,677.366272 
	C360.801697,677.662659 355.414581,674.751038 353.105255,669.183044 
	C350.304077,662.429138 350.573334,655.865295 355.680023,649.675659 
M357.094025,656.894714 
	C357.369995,657.413147 357.639069,658.379517 357.922943,658.383911 
	C363.650940,658.472229 369.380585,658.450012 375.317383,658.450012 
	C374.985687,653.305420 372.696228,650.625793 368.404907,649.935242 
	C363.177429,649.093994 359.296783,650.998718 357.094025,656.894714 
z"/>
<path fill="#91999E" opacity="1.000000" stroke="none" 
	d="
M528.690369,651.432373 
	C527.206604,654.666199 525.373108,657.585205 525.033264,660.668762 
	C524.473938,665.744568 524.881592,670.926941 524.881592,676.405029 
	C523.002563,676.405029 521.457275,676.405029 519.584534,676.405029 
	C519.584534,666.380127 519.584534,656.470581 519.584534,645.084290 
	C521.906250,646.606018 523.475281,647.634338 525.368652,648.875305 
	C527.481140,647.955688 530.483459,645.904724 533.730164,645.387451 
	C540.888733,644.246948 546.253662,648.923096 546.685425,656.518372 
	C547.052124,662.969849 546.761047,669.458679 546.761047,676.332214 
	C545.194641,676.478821 543.803284,676.609009 542.425293,676.737915 
	C542.083618,676.026917 541.707092,675.603638 541.700378,675.174561 
	C541.613770,669.682373 541.737427,664.182373 541.495667,658.698181 
	C541.139099,650.608643 536.716614,648.026489 528.690369,651.432373 
z"/>
<path fill="#91999E" opacity="1.000000" stroke="none" 
	d="
M944.597656,654.684692 
	C942.449707,650.289978 939.082947,648.910095 934.922852,650.104492 
	C933.489868,650.515991 931.868835,652.258240 931.506104,653.689636 
	C931.276978,654.593811 932.982971,656.648804 934.232117,657.138306 
	C937.457031,658.401794 940.980591,658.883057 944.257202,660.038757 
	C950.570374,662.265503 952.012268,670.055298 947.052063,674.568787 
	C941.312012,679.791809 925.277466,678.057922 924.546814,666.079712 
	C927.212585,667.533875 929.149292,668.601318 931.096436,669.649536 
	C933.198730,670.781189 935.205566,672.465759 937.443909,672.877808 
	C940.534546,673.446655 943.691895,672.490234 944.335571,668.775879 
	C945.004944,664.913147 941.766479,664.270935 939.058044,663.454895 
	C936.044922,662.547119 932.841431,662.086060 930.013123,660.791748 
	C925.378662,658.670898 924.206482,652.792114 927.600037,649.053528 
	C931.211060,645.075134 935.901184,644.598572 940.920593,645.756287 
	C945.468140,646.805176 948.143188,649.505371 948.875671,654.594421 
	C947.452271,654.681274 946.204895,654.757385 944.597656,654.684692 
z"/>
<path fill="#929BA2" opacity="1.000000" stroke="none" 
	d="
M418.997375,667.237061 
	C416.688416,665.605225 414.478760,664.313843 412.201202,663.156067 
	C411.485138,662.792053 410.576752,662.824341 409.773285,662.611450 
	C402.713501,660.741394 400.029022,658.094543 400.461243,653.456299 
	C400.912964,648.609009 405.573578,645.263611 411.913849,645.235657 
	C418.327545,645.207397 422.039307,648.190918 423.230011,655.610107 
	C420.949188,654.418884 419.397583,653.636169 417.872498,652.804749 
	C416.057800,651.815552 414.185486,649.855591 412.484100,650.002869 
	C410.270508,650.194397 408.200531,652.045227 406.068726,653.182007 
	C407.629883,654.777222 408.927490,656.905884 410.815826,657.838806 
	C413.450104,659.140259 416.639313,659.270996 419.388672,660.396851 
	C424.892883,662.650879 426.303375,669.916687 422.031250,674.060303 
	C417.858795,678.107117 412.557434,678.009949 407.457703,676.702637 
	C403.004944,675.561096 400.061890,672.461731 400.269745,666.351562 
	C402.106781,667.543518 403.824646,669.014832 405.809113,669.861145 
	C408.689362,671.089417 411.767395,672.560974 414.750275,672.537659 
	C416.202972,672.526367 417.631134,669.364685 418.997375,667.237061 
z"/>
<path fill="#949DA4" opacity="1.000000" stroke="none" 
	d="
M717.075928,655.982056 
	C717.076355,652.535278 717.076355,649.571777 717.076355,646.243164 
	C718.814636,646.157043 720.196960,646.088562 721.886475,646.004883 
	C721.886475,656.231873 721.886475,666.128235 721.886475,677.504639 
	C719.604919,676.080322 717.994202,675.074707 715.987305,673.821838 
	C714.832764,674.493347 712.892822,676.157166 710.655212,676.827576 
	C702.330933,679.321655 695.500122,674.481934 695.104065,665.763672 
	C694.818176,659.470032 695.048340,653.153015 695.048340,646.266785 
	C696.608032,646.185364 698.112549,646.106873 700.227234,645.996582 
	C700.227234,651.868225 700.137451,657.309143 700.250061,662.745911 
	C700.388916,669.447327 703.030762,672.768372 708.044250,672.856018 
	C713.295410,672.947815 716.780884,668.934692 717.030151,662.446106 
	C717.106628,660.454834 717.063782,658.458984 717.075928,655.982056 
z"/>
<path fill="#98A1A8" opacity="1.000000" stroke="none" 
	d="
M771.786133,660.996826 
	C771.786377,651.355957 771.786377,642.214172 771.786377,632.695435 
	C773.541443,632.695435 775.054993,632.695435 776.809937,632.695435 
	C776.809937,647.355347 776.809937,661.753113 776.809937,676.432800 
	C775.215088,676.432800 773.815491,676.432800 771.785889,676.432800 
	C771.785889,671.364807 771.785889,666.430359 771.786133,660.996826 
z"/>
<path fill="#899297" opacity="1.000000" stroke="none" 
	d="
M749.257935,646.803528 
	C749.464050,656.795715 749.464050,666.402100 749.464050,676.509949 
	C747.824158,676.604858 746.288208,676.693787 744.394104,676.803406 
	C744.394104,666.527283 744.394104,656.652161 744.394104,646.149475 
	C745.973083,646.240417 747.512451,646.329102 749.257935,646.803528 
z"/>
<path fill="#98A1A8" opacity="1.000000" stroke="none" 
	d="
M1019.372681,648.505432 
	C1020.756897,647.184814 1022.132141,646.310181 1024.406494,644.863708 
	C1024.406494,656.175598 1024.406494,666.060791 1024.406494,676.477295 
	C1022.969482,676.563416 1021.443420,676.654907 1019.363647,676.779541 
	C1019.363647,667.184814 1019.363647,658.068115 1019.372681,648.505432 
z"/>
<path fill="#929BA2" opacity="1.000000" stroke="none" 
	d="
M450.571472,649.418762 
	C450.570587,658.638916 450.570587,667.401489 450.570587,676.437134 
	C448.583191,676.437134 447.169006,676.437134 445.462463,676.437134 
	C445.462463,666.486145 445.462463,656.603760 445.462463,646.268799 
	C447.703339,646.366028 450.565796,644.455322 450.571472,649.418762 
z"/>
<path fill="#3578CF" opacity="1.000000" stroke="none" 
	d="
M595.136353,664.357056 
	C591.527710,663.606567 589.588867,661.422241 590.548828,658.329773 
	C591.092651,656.577698 593.467896,654.402283 595.156372,654.276794 
	C596.837891,654.151794 599.658936,655.982605 600.278687,657.605591 
	C601.776978,661.529236 599.362671,663.711121 595.136353,664.357056 
z"/>
<path fill="#3578CF" opacity="1.000000" stroke="none" 
	d="
M882.620605,659.757324 
	C881.356995,663.756104 878.615723,665.589905 875.376831,663.697876 
	C873.763672,662.755615 872.829407,659.375916 872.983948,657.197876 
	C873.066467,656.034851 876.649841,653.843567 877.713440,654.301147 
	C879.724609,655.166260 881.057617,657.607788 882.620605,659.757324 
z"/>
<path fill="#91999E" opacity="1.000000" stroke="none" 
	d="
M1025.669556,636.788818 
	C1023.874268,637.888184 1022.190002,638.983521 1020.415588,639.156738 
	C1019.890930,639.208008 1018.523987,636.604858 1018.641235,635.318237 
	C1018.730591,634.338745 1021.034485,632.558533 1021.522400,632.801636 
	C1023.133362,633.604309 1024.367432,635.163574 1025.669556,636.788818 
z"/>
<path fill="#91999E" opacity="1.000000" stroke="none" 
	d="
M444.466583,634.656860 
	C446.490753,634.015808 448.371765,633.406860 450.176392,633.582520 
	C450.589996,633.622864 451.277313,636.554504 450.835144,637.798950 
	C450.506622,638.723572 447.845581,639.875061 447.457123,639.531372 
	C446.112152,638.341187 445.306549,636.541504 444.466583,634.656860 
z"/>
<path fill="#91999E" opacity="1.000000" stroke="none" 
	d="
M749.358337,633.636963 
	C749.167725,635.704346 748.950195,637.640076 748.135620,639.278931 
	C747.967163,639.617798 745.136047,639.287231 744.335510,638.474182 
	C743.532898,637.659058 743.291016,634.774658 743.569092,634.660400 
	C745.299683,633.949097 747.245422,633.761353 749.358337,633.636963 
z"/>
<path fill="#010101" opacity="1.000000" stroke="none" 
	d="
M837.656494,202.038422 
	C836.883362,200.498871 836.797729,198.917175 836.712097,197.335480 
	C836.951355,197.266830 837.190674,197.198181 837.429932,197.129532 
	C838.127563,198.456116 838.825134,199.782700 839.618774,201.485016 
	C839.257935,201.905945 838.800964,201.951111 837.656494,202.038422 
z"/>
<path fill="#101010" opacity="1.000000" stroke="none" 
	d="
M339.913147,531.883301 
	C342.129486,525.414368 344.246002,519.326904 346.714813,512.226196 
	C351.541870,525.967651 356.068787,538.854675 360.749847,552.180542 
	C351.230133,552.180542 342.183533,552.180542 332.626923,552.180542 
	C335.104797,545.313538 337.459045,538.789124 339.913147,531.883301 
z"/>
<path fill="#121312" opacity="1.000000" stroke="none" 
	d="
M479.594543,533.019592 
	C489.160522,535.256104 493.167084,539.517456 493.694489,547.740601 
	C482.553833,547.740601 471.422516,547.740601 460.284821,547.740601 
	C460.958740,538.441406 468.025482,532.948853 479.594543,533.019592 
z"/>
<path fill="#101010" opacity="1.000000" stroke="none" 
	d="
M963.122314,574.171936 
	C951.747498,568.322083 950.539124,549.229492 958.089478,540.005310 
	C965.622742,530.802063 980.259399,532.403198 985.537659,543.245422 
	C989.313293,551.001343 989.233704,559.056152 985.444641,566.813721 
	C981.329712,575.238525 972.978943,577.963623 963.122314,574.171936 
z"/>
<path fill="#101010" opacity="1.000000" stroke="none" 
	d="
M477.971680,675.663391 
	C481.902466,675.550171 485.574707,675.361267 489.077637,676.042725 
	C490.593567,676.337646 492.637177,678.300354 492.846832,679.737976 
	C493.071014,681.275635 491.609009,684.391541 490.548157,684.547974 
	C486.482635,685.147522 481.876648,685.926392 478.240387,684.573730 
	C474.130554,683.044922 474.957275,679.070740 477.971680,675.663391 
z"/>
<path fill="#121312" opacity="1.000000" stroke="none" 
	d="
M491.325745,655.148560 
	C491.571503,659.498535 489.759796,661.975952 485.850494,662.464661 
	C482.393585,662.896851 478.572357,662.401001 477.864655,658.495300 
	C477.430817,656.101135 478.669128,651.618408 480.244751,651.040466 
	C482.996307,650.031128 486.617493,651.150391 489.800781,651.760681 
	C490.453583,651.885864 490.783569,653.694885 491.325745,655.148560 
z"/>
<path fill="#101010" opacity="1.000000" stroke="none" 
	d="
M667.453430,669.329041 
	C662.491150,673.403748 658.080994,673.791321 654.050049,670.776550 
	C650.177063,667.880127 648.637878,661.800781 650.490784,656.718750 
	C652.175537,652.097839 656.113281,649.538330 660.934326,649.930359 
	C667.601807,650.472595 671.802246,657.646729 669.669189,665.027954 
	C669.262512,666.435425 668.375549,667.704041 667.453430,669.329041 
z"/>
<path fill="#101010" opacity="1.000000" stroke="none" 
	d="
M323.873260,668.691223 
	C319.227600,673.294922 314.479431,674.072083 310.275269,671.206970 
	C306.133728,668.384521 304.383301,661.710449 306.368011,656.309082 
	C308.048279,651.736267 312.510742,649.210632 317.524384,649.994995 
	C323.528992,650.934387 327.223358,657.244995 325.736511,664.231812 
	C325.432037,665.662415 324.647797,666.990906 323.873260,668.691223 
z"/>
<path fill="#101010" opacity="1.000000" stroke="none" 
	d="
M815.981140,672.267944 
	C810.877258,673.664429 806.906616,672.406189 804.347351,668.245361 
	C801.619019,663.809509 801.622864,659.001892 804.219971,654.482483 
	C806.463806,650.577881 810.187439,649.328064 814.509338,650.028076 
	C819.481567,650.833557 821.854797,654.226196 822.689697,658.881165 
	C823.750366,664.794922 821.629089,669.141785 815.981140,672.267944 
z"/>
<path fill="#101010" opacity="1.000000" stroke="none" 
	d="
M1059.677490,650.183105 
	C1066.516846,649.771667 1069.954102,651.595520 1071.773315,656.298401 
	C1074.275269,662.766174 1071.826172,669.866638 1066.329102,672.081482 
	C1061.107056,674.185425 1055.472290,671.784851 1053.095581,666.443726 
	C1050.269897,660.093628 1052.796997,653.494263 1059.677490,650.183105 
z"/>
<path fill="#121312" opacity="1.000000" stroke="none" 
	d="
M357.208069,656.516357 
	C359.296783,650.998718 363.177429,649.093994 368.404907,649.935242 
	C372.696228,650.625793 374.985687,653.305420 375.317383,658.450012 
	C369.380585,658.450012 363.650940,658.472229 357.922943,658.383911 
	C357.639069,658.379517 357.369995,657.413147 357.208069,656.516357 
z"/>
</svg>