<svg version="1.1" id="Layer_1" xmlns="http://www.w3.org/2000/svg" xmlns:xlink="http://www.w3.org/1999/xlink" x="0px" y="0px"
	 width="100%" viewBox="0 0 1376 768" enable-background="new 0 0 1376 768" xml:space="preserve">
<path fill="#0C0C0C" opacity="1.000000" stroke="none" 
	d="
M830.000000,769.000000 
	C553.365479,769.000000 277.230957,769.000000 1.048222,769.000000 
	C1.048222,513.061951 1.048222,257.123901 1.048222,1.092923 
	C459.551300,1.092923 918.102600,1.092923 1376.826904,1.092923 
	C1376.826904,256.999908 1376.826904,512.999939 1376.826904,769.000000 
	C1194.790283,769.000000 1012.645142,769.000000 830.000000,769.000000 
M892.874817,310.348053 
	C920.512695,370.654510 948.159729,430.956787 975.754578,491.282959 
	C976.840332,493.656555 977.617859,495.430389 980.948608,495.391327 
	C998.611877,495.184204 1016.279785,495.369690 1033.942871,495.155609 
	C1035.566772,495.135925 1037.993408,493.638214 1038.659790,492.188843 
	C1057.897949,450.349487 1076.927490,408.414276 1096.062744,366.527405 
	C1104.547852,347.953949 1113.189087,329.451782 1122.578613,311.115021 
	C1123.051636,313.075317 1123.934082,315.034912 1123.937622,316.996033 
	C1124.016235,361.920776 1123.999390,406.845703 1123.999878,451.770569 
	C1124.000244,480.722168 1123.963989,509.673920 1124.087036,538.625000 
	C1124.094727,540.416260 1125.353394,542.202148 1126.962891,543.952393 
	C1149.399414,543.952393 1171.835938,543.952393 1194.364746,543.952393 
	C1194.364746,422.036682 1194.364746,300.643829 1194.364746,179.062897 
	C1192.735107,178.989624 1191.427612,178.880402 1190.120117,178.879547 
	C1166.126831,178.863892 1142.132935,178.937988 1118.140747,178.770981 
	C1114.637939,178.746597 1112.955200,179.826477 1111.489136,183.033600 
	C1083.085571,245.164062 1054.546753,307.232635 1026.040649,369.316162 
	C1019.958008,382.563599 1013.894714,395.819916 1007.482178,409.814941 
	C1005.885925,406.573364 1004.593689,404.091797 1003.424377,401.553558 
	C969.842102,328.656158 936.254089,255.761398 902.764709,182.821381 
	C901.401489,179.852310 899.910645,178.725449 896.506653,178.752197 
	C872.514771,178.940674 848.520813,178.859467 824.527466,178.864319 
	C823.054138,178.864609 821.580872,178.864349 819.904480,178.864349 
	C819.904480,300.680389 819.904480,422.110077 819.904480,543.633667 
	C842.791931,543.633667 865.504395,543.633667 888.623840,543.633667 
	C888.623840,541.207458 888.623840,539.069336 888.623901,536.931274 
	C888.625488,468.783539 888.618347,400.635834 888.641479,332.488098 
	C888.644043,325.001312 888.820496,317.514587 890.069763,310.021759 
	C890.837158,309.974243 891.604492,309.926727 892.874817,310.348053 
M724.785156,536.332703 
	C747.747131,524.648071 763.914124,506.796326 773.101562,482.735870 
	C780.282349,463.930573 782.067749,444.233154 782.076355,424.319397 
	C782.111206,343.987701 782.075989,263.656006 782.054504,183.324326 
	C782.054138,181.889450 781.902954,180.454605 781.827026,179.105530 
	C758.334106,179.105530 735.239197,179.105530 711.772034,179.105530 
	C711.772034,182.159897 711.772034,184.957077 711.772034,187.754257 
	C711.773010,265.585999 711.793030,343.417755 711.740112,421.249481 
	C711.735657,427.739594 711.566101,434.263031 710.903198,440.712341 
	C709.509949,454.266754 705.971802,467.026978 694.483765,475.846344 
	C667.981567,496.192108 628.590637,482.425201 620.979248,450.045105 
	C619.365295,443.179504 619.028442,436.013702 618.176453,429.542419 
	C595.135193,429.542419 572.028320,429.542419 547.904724,429.542419 
	C549.008484,439.740051 549.428711,449.224884 551.140076,458.470703 
	C558.823486,499.981415 581.441833,529.689697 622.313110,542.606873 
	C656.623413,553.450439 690.965088,551.889709 724.785156,536.332703 
M466.803223,322.702362 
	C449.129089,275.024170 431.454956,227.345993 413.517670,178.957870 
	C401.468140,210.533554 389.704163,241.253922 378.113770,272.039642 
	C377.514587,273.631165 378.031250,275.911560 378.647583,277.651947 
	C388.856384,306.480072 399.159424,335.274841 409.452454,364.073120 
	C414.297974,377.630280 419.166809,391.179077 424.180878,405.166229 
	C421.736664,405.166229 419.916382,405.166351 418.096100,405.166260 
	C389.103973,405.164612 360.111481,405.231628 331.120270,405.069855 
	C327.695587,405.050751 326.193573,406.101593 325.037811,409.257233 
	C320.637817,421.270599 315.919922,433.167267 311.356628,445.121246 
	C309.001373,451.291138 306.721405,457.489807 304.207397,464.210175 
	C306.614105,464.210175 308.409912,464.210236 310.205688,464.210144 
	C353.860504,464.207886 397.515381,464.243134 441.169922,464.128784 
	C444.489136,464.120087 446.012238,464.960571 447.208069,468.261047 
	C455.926544,492.323792 464.980804,516.264709 473.747559,540.310303 
	C474.785583,543.157288 476.077698,544.015564 479.045563,543.997070 
	C500.705505,543.861938 522.366699,543.921875 544.027466,543.920227 
	C545.612183,543.920105 547.196838,543.920166 549.112488,543.920166 
	C521.613037,470.074371 494.313293,396.764984 466.803223,322.702362 
M196.952301,510.448090 
	C192.600052,521.368225 188.247818,532.288330 183.785828,543.483765 
	C185.215225,543.701782 185.854935,543.883972 186.494843,543.884644 
	C208.826370,543.907288 231.158508,543.834045 253.488815,544.004395 
	C256.906586,544.030518 257.626465,542.023865 258.538849,539.656006 
	C279.370392,485.592468 300.247772,431.546570 321.040466,377.468140 
	C342.669220,321.215210 364.221924,264.933105 385.797516,208.659775 
	C389.525269,198.937149 393.201660,189.194824 397.106201,178.923828 
	C375.021179,178.923828 353.703796,178.860626 332.389099,179.071518 
	C331.023651,179.085007 329.069305,180.951630 328.427124,182.412552 
	C325.078949,190.029419 322.036285,197.781784 318.942627,205.509155 
	C278.348358,306.906189 237.763458,408.306976 196.952301,510.448090 
M1124.500000,582.827637 
	C810.912170,582.827637 497.324341,582.827637 183.608185,582.827637 
	C183.608185,585.968872 183.608185,588.370117 183.608185,591.000854 
	C520.700012,591.000854 857.449097,591.000854 1194.387329,591.000854 
	C1194.387329,588.175293 1194.387329,585.658508 1194.387329,582.827148 
	C1171.138306,582.827148 1148.319214,582.827148 1124.500000,582.827637 
z"/>
<path fill="#F4F8FA" opacity="1.000000" stroke="none" 
	d="
M888.916321,310.027832 
	C888.820496,317.514587 888.644043,325.001312 888.641479,332.488098 
	C888.618347,400.635834 888.625488,468.783539 888.623901,536.931274 
	C888.623840,539.069336 888.623840,541.207458 888.623840,543.633667 
	C865.504395,543.633667 842.791931,543.633667 819.904480,543.633667 
	C819.904480,422.110077 819.904480,300.680389 819.904480,178.864349 
	C821.580872,178.864349 823.054138,178.864609 824.527466,178.864319 
	C848.520813,178.859467 872.514771,178.940674 896.506653,178.752197 
	C899.910645,178.725449 901.401489,179.852310 902.764709,182.821381 
	C936.254089,255.761398 969.842102,328.656158 1003.424377,401.553558 
	C1004.593689,404.091797 1005.885925,406.573364 1007.482178,409.814941 
	C1013.894714,395.819916 1019.958008,382.563599 1026.040649,369.316162 
	C1054.546753,307.232635 1083.085571,245.164062 1111.489136,183.033600 
	C1112.955200,179.826477 1114.637939,178.746597 1118.140747,178.770981 
	C1142.132935,178.937988 1166.126831,178.863892 1190.120117,178.879547 
	C1191.427612,178.880402 1192.735107,178.989624 1194.364746,179.062897 
	C1194.364746,300.643829 1194.364746,422.036682 1194.364746,543.952393 
	C1171.835938,543.952393 1149.399414,543.952393 1126.374023,543.517273 
	C1125.785156,463.154022 1125.785156,383.225922 1125.785156,303.297791 
	C1125.482056,303.251831 1125.178955,303.205872 1124.875977,303.159943 
	C1123.837036,305.745697 1122.798218,308.331451 1121.759399,310.917236 
	C1113.189087,329.451782 1104.547852,347.953949 1096.062744,366.527405 
	C1076.927490,408.414276 1057.897949,450.349487 1038.659790,492.188843 
	C1037.993408,493.638214 1035.566772,495.135925 1033.942871,495.155609 
	C1016.279785,495.369690 998.611877,495.184204 980.948608,495.391327 
	C977.617859,495.430389 976.840332,493.656555 975.754578,491.282959 
	C948.159729,430.956787 920.512695,370.654510 892.537964,309.750061 
	C891.312744,307.207581 890.424377,305.263062 889.535950,303.318573 
	C889.231262,303.427948 888.926514,303.537292 888.621826,303.646667 
	C888.719971,305.773712 888.818176,307.900787 888.916321,310.027832 
z"/>
<path fill="#F5F9FB" opacity="1.000000" stroke="none" 
	d="
M724.466614,536.531982 
	C690.965088,551.889709 656.623413,553.450439 622.313110,542.606873 
	C581.441833,529.689697 558.823486,499.981415 551.140076,458.470703 
	C549.428711,449.224884 549.008484,439.740051 547.904724,429.542419 
	C572.028320,429.542419 595.135193,429.542419 618.176453,429.542419 
	C619.028442,436.013702 619.365295,443.179504 620.979248,450.045105 
	C628.590637,482.425201 667.981567,496.192108 694.483765,475.846344 
	C705.971802,467.026978 709.509949,454.266754 710.903198,440.712341 
	C711.566101,434.263031 711.735657,427.739594 711.740112,421.249481 
	C711.793030,343.417755 711.773010,265.585999 711.772034,187.754257 
	C711.772034,184.957077 711.772034,182.159897 711.772034,179.105530 
	C735.239197,179.105530 758.334106,179.105530 781.827026,179.105530 
	C781.902954,180.454605 782.054138,181.889450 782.054504,183.324326 
	C782.075989,263.656006 782.111206,343.987701 782.076355,424.319397 
	C782.067749,444.233154 780.282349,463.930573 773.101562,482.735870 
	C763.914124,506.796326 747.747131,524.648071 724.466614,536.531982 
z"/>
<path fill="#F4F8FA" opacity="1.000000" stroke="none" 
	d="
M466.908386,323.078979 
	C494.313293,396.764984 521.613037,470.074371 549.112488,543.920166 
	C547.196838,543.920166 545.612183,543.920105 544.027466,543.920227 
	C522.366699,543.921875 500.705505,543.861938 479.045563,543.997070 
	C476.077698,544.015564 474.785583,543.157288 473.747559,540.310303 
	C464.980804,516.264709 455.926544,492.323792 447.208069,468.261047 
	C446.012238,464.960571 444.489136,464.120087 441.169922,464.128784 
	C397.515381,464.243134 353.860504,464.207886 310.205688,464.210144 
	C308.409912,464.210236 306.614105,464.210175 304.207397,464.210175 
	C306.721405,457.489807 309.001373,451.291138 311.356628,445.121246 
	C315.919922,433.167267 320.637817,421.270599 325.037811,409.257233 
	C326.193573,406.101593 327.695587,405.050751 331.120270,405.069855 
	C360.111481,405.231628 389.103973,405.164612 418.096100,405.166260 
	C419.916382,405.166351 421.736664,405.166229 424.180878,405.166229 
	C419.166809,391.179077 414.297974,377.630280 409.452454,364.073120 
	C399.159424,335.274841 388.856384,306.480072 378.647583,277.651947 
	C378.031250,275.911560 377.514587,273.631165 378.113770,272.039642 
	C389.704163,241.253922 401.468140,210.533554 413.517670,178.957870 
	C431.454956,227.345993 449.129089,275.024170 466.908386,323.078979 
z"/>
<path fill="#2C7CF7" opacity="1.000000" stroke="none" 
	d="
M197.064240,510.077454 
	C237.763458,408.306976 278.348358,306.906189 318.942627,205.509155 
	C322.036285,197.781784 325.078949,190.029419 328.427124,182.412552 
	C329.069305,180.951630 331.023651,179.085007 332.389099,179.071518 
	C353.703796,178.860626 375.021179,178.923828 397.106201,178.923828 
	C393.201660,189.194824 389.525269,198.937149 385.797516,208.659775 
	C364.221924,264.933105 342.669220,321.215210 321.040466,377.468140 
	C300.247772,431.546570 279.370392,485.592468 258.538849,539.656006 
	C257.626465,542.023865 256.906586,544.030518 253.488815,544.004395 
	C231.158508,543.834045 208.826370,543.907288 186.494843,543.884644 
	C185.854935,543.883972 185.215225,543.701782 183.785828,543.483765 
	C188.247818,532.288330 192.600052,521.368225 197.064240,510.077454 
z"/>
<path fill="#307DEB" opacity="1.000000" stroke="none" 
	d="
M1125.000000,582.827393 
	C1148.319214,582.827148 1171.138306,582.827148 1194.387329,582.827148 
	C1194.387329,585.658508 1194.387329,588.175293 1194.387329,591.000854 
	C857.449097,591.000854 520.700012,591.000854 183.608185,591.000854 
	C183.608185,588.370117 183.608185,585.968872 183.608185,582.827637 
	C497.324341,582.827637 810.912170,582.827637 1125.000000,582.827393 
z"/>
<path fill="#020202" opacity="1.000000" stroke="none" 
	d="
M1122.168945,311.016113 
	C1122.798218,308.331451 1123.837036,305.745697 1124.875977,303.159943 
	C1125.178955,303.205872 1125.482056,303.251831 1125.785156,303.297791 
	C1125.785156,383.225922 1125.785156,463.154022 1125.907593,543.536377 
	C1125.353394,542.202148 1124.094727,540.416260 1124.087036,538.625000 
	C1123.963989,509.673920 1124.000244,480.722168 1123.999878,451.770569 
	C1123.999390,406.845703 1124.016235,361.920776 1123.937622,316.996033 
	C1123.934082,315.034912 1123.051636,313.075317 1122.168945,311.016113 
z"/>
<path fill="#020202" opacity="1.000000" stroke="none" 
	d="
M889.493042,310.024780 
	C888.818176,307.900787 888.719971,305.773712 888.621826,303.646667 
	C888.926514,303.537292 889.231262,303.427948 889.535950,303.318573 
	C890.424377,305.263062 891.312744,307.207581 892.286499,309.515656 
	C891.604492,309.926727 890.837158,309.974243 889.493042,310.024780 
z"/>
</svg>