<svg version="1.1" id="Layer_1" xmlns="http://www.w3.org/2000/svg" xmlns:xlink="http://www.w3.org/1999/xlink" x="0px" y="0px"
	 width="100%" viewBox="0 0 1376 768" enable-background="new 0 0 1376 768" xml:space="preserve">
<path fill="#0a0a0a" opacity="1.000000" stroke="none" 
	d="
M1280.000000,769.000000 
	C853.382935,769.000000 427.265900,769.000000 1.074414,769.000000 
	C1.074414,513.079407 1.074414,257.158844 1.074414,1.119114 
	C459.666656,1.119114 918.333313,1.119114 1376.993896,1.119114 
	C1376.993896,257.067688 1376.993896,513.033875 1376.990967,769.000000 
	C1344.825317,769.000000 1312.662598,769.000000 1280.000000,769.000000 
M545.642761,387.230988 
	C551.553101,375.090149 557.463440,362.949341 563.373840,350.808533 
	C563.791321,350.910034 564.208862,351.011536 564.626343,351.113037 
	C564.626343,377.929779 564.626343,404.746521 564.626343,431.490051 
	C572.700928,431.490051 580.141479,431.490051 587.595215,431.490051 
	C587.595215,390.840546 587.595215,350.464020 587.595215,309.883698 
	C579.074707,309.883698 570.909424,309.712891 562.763000,310.028900 
	C561.148621,310.091522 559.015625,311.676392 558.145508,313.159790 
	C555.798645,317.160706 554.015869,321.491241 551.988403,325.680939 
	C542.236023,345.834167 532.476868,365.984100 522.500916,386.587799 
	C521.669678,385.101440 521.063599,384.133148 520.566528,383.111816 
	C509.295715,359.952728 498.068756,336.772095 486.703125,313.659698 
	C485.955658,312.139709 484.204865,310.105103 482.854431,310.053680 
	C474.235138,309.725647 465.597198,309.886597 456.864685,309.886597 
	C456.864685,350.718262 456.864685,391.133179 456.864685,431.359131 
	C464.761658,431.359131 472.323517,431.359131 480.378357,431.359131 
	C480.378357,404.199219 480.378357,377.431885 480.378357,349.418884 
	C489.244385,367.494659 497.479858,384.373505 505.808289,401.206360 
	C508.078552,405.794891 509.573456,411.996368 513.345276,414.268707 
	C517.158508,416.565857 523.368164,414.705627 528.500549,415.062012 
	C531.401489,415.263428 532.592346,413.979797 533.697021,411.631439 
	C537.446289,403.661163 541.375000,395.775330 545.642761,387.230988 
M417.538025,309.871185 
	C415.094788,309.871185 412.651520,309.871185 409.899109,309.871185 
	C409.899109,312.176270 409.897522,313.974457 409.899384,315.772644 
	C409.924835,340.432404 409.977295,365.092163 409.945129,389.751862 
	C409.940796,393.067474 409.775848,396.427216 409.226929,399.689392 
	C407.678253,408.892731 402.480927,413.216339 393.974640,412.710419 
	C385.472717,412.204712 380.684540,407.318939 379.834747,398.278809 
	C379.712891,396.982666 379.602295,395.685455 379.447815,393.955231 
	C375.395325,393.955231 371.607300,393.955231 367.819275,393.955231 
	C363.873871,393.955231 359.928497,393.955231 356.034546,393.955231 
	C354.695160,411.899170 364.323914,426.546112 380.658722,431.544189 
	C389.418610,434.224548 398.333557,434.486877 407.292084,432.285400 
	C422.006531,428.669495 430.435547,419.192047 432.996002,404.466888 
	C433.732788,400.229767 433.890381,395.850952 433.904114,391.535797 
	C433.986298,365.709930 433.952026,339.883698 433.942474,314.057587 
	C433.941986,312.776611 433.808258,311.495697 433.717407,309.871704 
	C428.461761,309.871704 423.493347,309.871704 417.538025,309.871185 
M292.902771,348.582275 
	C296.939636,360.320038 300.976501,372.057770 305.224274,384.408813 
	C297.531128,384.408813 290.257324,384.250214 283.001678,384.542297 
	C281.546936,384.600891 279.448853,386.068512 278.871094,387.412476 
	C276.741272,392.366913 275.125366,397.542267 273.120422,403.185608 
	C285.106232,403.185608 296.554565,403.291290 307.998474,403.114105 
	C311.003662,403.067596 312.383728,403.986603 313.334351,406.879486 
	C315.717621,414.132385 318.397156,421.294891 321.212341,428.392731 
	C321.750305,429.749084 323.417816,431.552795 324.626465,431.601349 
	C332.028687,431.898743 339.448853,431.750183 347.461456,431.750183 
	C332.942047,393.418365 318.645355,355.674530 303.937256,316.844574 
	C300.058350,327.851196 296.548798,337.809631 292.902771,348.582275 
M260.240753,343.625397 
	C249.303360,372.710815 238.365967,401.796204 227.119995,431.702240 
	C234.741089,431.702240 241.511047,431.547363 248.268463,431.771332 
	C251.380402,431.874451 252.513168,430.569244 253.495743,427.806549 
	C265.822754,393.147369 278.300140,358.541779 290.698730,323.907990 
	C292.286041,319.474030 293.645905,314.958618 295.306213,309.884827 
	C288.630920,309.884827 282.810364,310.083588 277.012512,309.807129 
	C273.751709,309.651703 272.253815,310.904968 271.214142,313.846954 
	C267.775818,323.576324 264.122467,333.229675 260.240753,343.625397 
M947.039673,338.513336 
	C947.039673,334.261871 947.039673,330.010437 947.039673,325.445618 
	C945.208496,325.445618 944.043945,325.584656 942.923157,325.421967 
	C937.546082,324.641479 934.328064,326.351715 931.941284,331.792358 
	C926.680054,343.785156 920.488464,355.369781 914.528564,367.420166 
	C913.852295,366.263336 913.309509,365.439392 912.868225,364.564240 
	C906.960449,352.848236 900.944946,341.183746 895.254089,329.363037 
	C893.801636,326.346100 892.088623,325.015198 888.800415,325.326752 
	C886.548157,325.540161 884.259338,325.367645 881.933472,325.367645 
	C881.933472,346.788330 881.933472,367.667542 881.933472,388.462341 
	C885.213928,388.462341 888.120667,388.462341 891.407471,388.462341 
	C891.407471,373.765778 891.407471,359.362274 891.407471,344.958771 
	C893.101990,346.191223 894.007019,347.656647 894.785645,349.186462 
	C899.383423,358.220398 903.819580,367.341064 908.650452,376.247986 
	C909.536316,377.881256 911.838196,379.137543 913.747253,379.736298 
	C916.870605,380.715912 918.737610,379.133789 920.221619,376.062683 
	C925.303528,365.545715 930.762878,355.211182 936.078308,344.807068 
	C936.429749,344.884796 936.781250,344.962555 937.132690,345.040283 
	C937.132690,359.523346 937.132690,374.006378 937.132690,388.551331 
	C940.652527,388.551331 943.584290,388.551331 947.040588,388.551331 
	C947.040588,372.058380 947.040588,355.783356 947.039673,338.513336 
M585.932190,454.258698 
	C584.294983,454.096466 582.657837,453.792603 581.020569,453.792175 
	C464.593719,453.762512 348.166870,453.755920 231.740005,453.759705 
	C229.954971,453.759735 228.169937,453.912140 226.449814,453.990509 
	C224.918121,459.512939 227.622269,460.229248 231.877502,460.226593 
	C348.637512,460.154144 465.397552,460.159912 582.157593,460.142090 
	C583.622498,460.141876 585.087341,460.004974 587.091248,459.904968 
	C586.896484,458.061768 586.731140,456.496887 585.932190,454.258698 
M683.667725,384.293549 
	C684.210693,382.724243 684.923218,381.190918 685.264954,379.578949 
	C686.306274,374.667786 688.770508,372.362701 694.199768,373.144409 
	C698.272888,373.730835 702.565613,373.683044 706.646667,373.108551 
	C712.391724,372.299835 714.747925,374.637573 716.374268,379.981445 
	C719.159546,389.133392 719.540771,389.020691 728.970215,388.705963 
	C729.192749,388.698547 729.405151,388.388489 729.793457,388.086456 
	C722.292664,368.087891 714.681946,348.098419 707.347473,328.008118 
	C705.710754,323.524841 702.422607,325.844055 699.854553,325.482391 
	C697.544861,325.157104 695.110596,324.779999 693.935486,328.242218 
	C690.790466,337.508270 687.198730,346.622498 683.802551,355.803741 
	C679.790100,366.651276 675.796631,377.505859 671.323181,389.636566 
	C675.879944,387.151245 681.570801,392.273712 683.667725,384.293549 
M788.897278,388.571503 
	C795.260254,386.257202 799.221558,381.673340 801.720093,375.136963 
	C796.746704,374.977814 792.477295,374.048950 788.741882,378.894989 
	C785.506714,383.091919 780.075378,382.616364 775.329773,380.624664 
	C770.729065,378.693756 768.154480,373.921112 768.531616,368.110901 
	C779.853210,368.110901 791.221741,368.110901 802.575989,368.110901 
	C802.575989,365.710449 802.759705,363.868408 802.546204,362.073578 
	C801.166992,350.479156 793.477295,343.187683 782.184570,342.653900 
	C770.014221,342.078613 761.132080,348.843353 758.760803,360.515442 
	C754.835022,379.839325 769.625977,393.833252 788.897278,388.571503 
M1093.154419,388.846497 
	C1102.195068,385.699951 1107.432739,379.281250 1108.588013,369.891052 
	C1109.789307,360.125275 1107.022705,351.595123 1098.396362,346.109131 
	C1090.435791,341.046661 1081.931641,341.159729 1073.871704,345.967499 
	C1065.183472,351.150055 1062.440918,359.502106 1063.380249,369.079010 
	C1064.843628,383.998657 1076.524048,391.893219 1093.154419,388.846497 
M627.029419,466.476929 
	C627.043457,469.476166 626.825256,472.505371 627.206055,475.457306 
	C627.327942,476.402496 629.036926,477.797638 630.015320,477.794006 
	C630.999878,477.790405 632.302307,476.473602 632.862549,475.413574 
	C633.347168,474.496704 632.997314,473.132996 632.997314,471.966797 
	C632.999451,413.976196 633.000061,355.985565 632.996826,297.994965 
	C632.996704,296.662537 633.316162,295.165344 632.812622,294.048920 
	C632.397705,293.128967 630.980835,292.135529 630.011230,292.138824 
	C629.040344,292.142090 627.565674,293.150665 627.225525,294.060333 
	C626.730591,295.383789 627.032349,297.013367 627.032227,298.512421 
	C627.028442,354.170074 627.028992,409.827759 627.029419,466.476929 
M990.402893,355.524170 
	C990.288513,360.516693 990.411133,365.529205 989.992798,370.496124 
	C989.575134,375.454559 987.262207,379.435760 982.188293,381.030151 
	C974.302795,383.508057 968.387939,378.830292 968.198364,369.802887 
	C968.017456,361.186707 968.159363,352.563721 968.159363,343.954590 
	C964.763367,343.954590 961.847107,343.954590 958.882202,343.954590 
	C958.882202,354.367035 958.557617,364.505096 958.997925,374.609863 
	C959.284729,381.193237 962.648376,386.475067 969.206421,388.677368 
	C976.100159,390.992462 982.677734,390.381775 988.179626,384.933411 
	C988.903931,384.216095 989.747009,383.618713 990.778198,382.764465 
	C990.984131,384.965942 991.137268,386.602478 991.314636,388.497742 
	C994.197083,388.497742 996.931274,388.497742 999.858826,388.497742 
	C999.858826,373.558716 999.858826,358.816681 999.858826,343.922058 
	C996.699219,343.922058 993.772339,343.922058 990.399292,343.922058 
	C990.399292,347.621826 990.399292,351.080841 990.402893,355.524170 
M1011.897644,364.500122 
	C1011.897644,372.440613 1011.897644,380.381104 1011.897644,388.422943 
	C1015.470154,388.422943 1018.491089,388.422943 1021.737854,388.422943 
	C1021.737854,386.395630 1021.725159,384.745911 1021.740051,383.096436 
	C1021.804504,375.943298 1021.527710,368.764771 1022.048096,361.644653 
	C1022.534180,354.992371 1027.817261,350.678619 1034.143921,350.851593 
	C1040.399902,351.022583 1043.639771,354.688995 1044.057739,362.145813 
	C1044.169312,364.138123 1044.171143,366.138092 1044.175171,368.134644 
	C1044.188477,374.900513 1044.180176,381.666412 1044.180176,388.584961 
	C1047.724854,388.584961 1050.637085,388.584961 1053.097412,388.584961 
	C1053.097412,377.434845 1053.810059,366.461029 1052.864990,355.631927 
	C1052.148682,347.423798 1045.892334,343.130981 1037.621216,342.668793 
	C1031.039795,342.301025 1025.702637,344.670471 1021.410522,350.318085 
	C1020.961304,347.729553 1020.637878,345.865967 1020.289307,343.857330 
	C1017.391052,343.857330 1014.799927,343.857330 1011.895508,343.857330 
	C1011.895508,350.562195 1011.895508,357.031219 1011.897644,364.500122 
M810.281128,349.237457 
	C814.220093,354.764862 818.159058,360.292267 822.128479,365.862427 
	C816.828796,373.419708 811.666687,380.780762 806.206604,388.566711 
	C816.728638,389.111328 816.717529,389.103821 821.638428,381.815094 
	C823.848022,378.542267 826.112244,375.306305 828.630737,371.648254 
	C831.237610,375.417297 833.618469,378.799957 835.937378,382.224609 
	C840.982361,389.675262 841.747681,389.996033 851.055908,388.077789 
	C846.614319,381.945496 842.340759,375.854584 837.849487,369.928650 
	C835.770203,367.185211 835.486084,365.096863 837.835144,362.156158 
	C842.414856,356.422882 846.489441,350.286163 850.818726,344.253113 
	C843.656616,342.413208 838.572693,343.968842 835.362549,350.692841 
	C833.769897,354.028687 831.112000,356.855988 828.695801,360.251007 
	C826.218262,356.629303 823.667969,353.834595 822.196045,350.555725 
	C819.103455,343.666626 813.940552,342.451202 806.981384,344.127930 
	C807.995911,345.690155 808.947266,347.155212 810.281128,349.237457 
M1141.454590,388.781433 
	C1144.743164,388.781433 1148.031738,388.781433 1151.546875,388.781433 
	C1151.546875,385.861206 1151.546875,383.464905 1151.546875,380.598145 
	C1143.614624,380.598145 1135.888306,380.598145 1127.165161,380.598145 
	C1134.489624,371.608582 1141.038940,363.271515 1147.941406,355.237762 
	C1150.930298,351.758972 1151.942871,348.251740 1150.820801,344.052002 
	C1139.191895,344.052002 1127.800781,344.052002 1116.496948,344.052002 
	C1116.496948,346.827789 1116.496948,349.238831 1116.496948,352.116547 
	C1124.161133,352.116547 1131.506104,352.116547 1139.227295,352.116547 
	C1132.117798,360.849701 1125.550415,369.219543 1118.626587,377.283325 
	C1115.560791,380.853882 1115.176147,384.470734 1116.256714,388.779694 
	C1124.477417,388.779694 1132.471924,388.779694 1141.454590,388.781433 
M737.982788,361.500000 
	C737.982788,370.435822 737.982788,379.371643 737.982788,388.403046 
	C741.533691,388.403046 744.576599,388.403046 747.609741,388.403046 
	C747.609741,366.818054 747.609741,345.581940 747.609741,324.249451 
	C744.288696,324.249451 741.254028,324.249451 737.982788,324.249451 
	C737.982788,336.567627 737.982788,348.533813 737.982788,361.500000 
M759.713318,427.399078 
	C756.612122,431.293488 757.871399,435.114319 759.212036,437.327026 
	C758.225403,443.272308 757.081909,447.772736 756.950317,452.302612 
	C756.906555,453.808777 759.191223,456.180481 760.887085,456.756866 
	C763.597046,457.677948 766.773132,457.939209 769.627563,457.554504 
	C773.770569,456.996185 776.804443,454.457001 776.636353,449.892853 
	C776.469116,445.352936 773.124817,443.901459 769.125977,443.507080 
	C766.643738,443.262238 764.166504,442.966614 761.687012,442.693787 
	C761.683105,442.080750 761.679260,441.467712 761.675415,440.854675 
	C763.395264,440.649292 765.251648,440.785065 766.804871,440.163391 
	C769.549927,439.064697 773.143127,438.149567 774.496643,435.981201 
	C776.345947,433.018616 776.432068,428.955353 777.569153,424.104919 
	C771.937378,424.993805 766.092346,425.916321 759.713318,427.399078 
M935.329529,447.580780 
	C935.667603,447.241821 936.297729,446.905914 936.301208,446.563507 
	C936.402588,436.751556 936.507690,426.938080 936.370239,417.128204 
	C936.358459,416.287506 934.666199,415.470398 933.754578,414.642334 
	C933.358215,414.913605 932.961853,415.184845 932.565491,415.456085 
	C932.565491,419.206696 932.565491,422.957275 932.565491,426.894043 
	C924.350342,423.466064 919.437256,424.161377 916.098450,428.959015 
	C912.994507,433.419220 913.349792,440.854797 916.856934,444.834412 
	C920.479004,448.944397 925.420715,449.177582 931.940308,445.659180 
	C932.870667,446.361816 933.711731,446.997009 935.329529,447.580780 
M1034.207642,429.833374 
	C1034.213867,437.636719 1034.124023,445.442352 1034.311523,453.241333 
	C1034.346802,454.709778 1035.487183,456.151642 1036.117554,457.605804 
	C1036.826538,456.087677 1037.904175,454.627838 1038.155640,453.037415 
	C1038.507690,450.810028 1038.244507,448.485352 1038.244507,446.022095 
	C1047.708252,449.178619 1051.900391,448.432831 1055.035645,443.320099 
	C1057.933594,438.594391 1057.428711,431.895782 1053.878662,427.967987 
	C1050.045166,423.726562 1045.158813,423.524384 1039.044800,426.914154 
	C1037.575195,426.184204 1036.587646,425.693695 1035.600098,425.203186 
	C1035.136963,426.447723 1034.673828,427.692291 1034.207642,429.833374 
M687.000732,425.598816 
	C682.159790,423.520630 677.811646,424.299011 674.416443,428.319427 
	C670.822937,432.574432 670.791748,437.505585 673.024353,442.346771 
	C674.844116,446.293030 678.140198,448.467682 682.616516,448.073425 
	C686.291321,447.749756 689.935608,447.078400 694.134277,446.484680 
	C694.134277,437.263580 694.174500,427.341217 694.058472,417.420593 
	C694.049133,416.619720 692.966370,415.831390 692.382385,415.037262 
	C691.680359,415.895203 690.483765,416.693726 690.372253,417.622528 
	C690.077515,420.077301 690.357422,422.598175 690.128662,425.066833 
	C690.094299,425.437897 688.556641,425.669647 687.000732,425.598816 
M861.274780,428.351776 
	C856.487915,422.938141 851.151001,423.802826 845.239807,427.592072 
	C845.239807,424.541321 845.358215,422.090485 845.203674,419.656952 
	C845.071716,417.579163 846.427185,414.027374 841.482300,415.532196 
	C841.482300,425.330322 841.445190,435.135376 841.542297,444.939148 
	C841.551636,445.874298 842.399353,446.801178 842.857910,447.731873 
	C843.897400,447.037018 844.936829,446.342194 846.112366,445.556396 
	C855.590515,452.285156 863.568726,445.331177 863.765381,437.971710 
	C863.845276,434.983276 862.462280,431.955719 861.274780,428.351776 
M1000.573669,447.831543 
	C1001.087219,446.455139 1001.908264,445.110474 1002.054260,443.696136 
	C1002.428284,440.071808 1002.209229,436.369812 1002.780579,432.787109 
	C1003.324036,429.379608 1005.858215,427.729889 1009.306213,427.934387 
	C1012.898987,428.147522 1014.008789,430.636780 1014.087219,433.780701 
	C1014.178528,437.441376 1014.004700,441.117096 1014.290283,444.759308 
	C1014.375488,445.846130 1015.617126,446.842316 1016.328979,447.880005 
	C1016.916748,446.896942 1017.930847,445.947479 1018.011536,444.924377 
	C1018.246521,441.945740 1018.137390,438.937408 1018.110718,435.941193 
	C1018.014587,425.142426 1012.727234,421.970917 1003.071106,426.876648 
	C1002.902710,426.962189 1002.522827,426.631439 1002.133057,426.442230 
	C1002.133057,423.827972 1002.303284,421.151459 1002.056213,418.514099 
	C1001.944214,417.318573 1001.004150,416.200592 1000.439697,415.047394 
	C999.713379,416.224762 998.383911,417.388702 998.357422,418.581635 
	C998.169067,427.067871 998.186462,435.560913 998.305786,444.049408 
	C998.323547,445.312531 999.219604,446.563324 1000.573669,447.831543 
M872.251892,428.935059 
	C871.520386,427.623810 870.788940,426.312561 870.057495,425.001312 
	C869.451355,426.301697 868.437256,427.567108 868.322266,428.909576 
	C868.067932,431.877869 868.210876,434.886383 868.292786,437.875763 
	C868.401489,441.841919 868.988037,446.173645 873.251465,447.300537 
	C876.487854,448.155945 880.233276,447.085541 883.752197,446.872070 
	C883.657471,446.534821 883.562805,446.197601 883.468140,445.860352 
	C884.638794,446.474213 885.809448,447.088043 886.980103,447.701874 
	C887.387634,446.573730 888.126892,445.451660 888.147705,444.316406 
	C888.262695,438.031952 888.202698,431.744263 888.202698,425.457703 
	C887.703308,425.192719 887.203857,424.927765 886.704468,424.662811 
	C885.895630,425.807159 884.508850,426.893280 884.386536,428.106812 
	C884.021179,431.731079 884.352966,435.423065 884.031860,439.054962 
	C883.703796,442.766022 881.195129,444.652527 877.616028,444.702118 
	C873.828674,444.754608 872.447998,442.179382 872.312744,438.812714 
	C872.192749,435.825928 872.265808,432.831360 872.251892,428.935059 
M719.760925,430.963715 
	C716.478516,425.322388 711.893616,423.259003 706.584656,425.033936 
	C701.519470,426.727356 698.552612,431.949768 699.327026,437.809174 
	C700.118286,443.795898 703.781738,447.694855 709.049500,448.156464 
	C714.321594,448.618469 717.736816,446.309906 719.357056,440.812836 
	C716.066528,442.248322 713.129700,444.396088 710.027527,444.669647 
	C705.888306,445.034668 703.594849,442.157562 703.296265,437.183655 
	C709.180176,437.183655 714.727112,437.183655 720.770691,437.183655 
	C720.442871,434.899200 720.213440,433.299805 719.760925,430.963715 
M782.463562,428.958862 
	C782.488098,433.774811 782.376953,438.597565 782.618164,443.402649 
	C782.692566,444.883331 783.728638,446.315704 784.324341,447.770203 
	C784.991516,446.387939 786.080688,445.052917 786.241760,443.613983 
	C786.627747,440.166809 786.319336,436.636627 786.773865,433.203827 
	C787.251709,429.595001 789.659241,427.657623 793.374329,427.827972 
	C797.215271,428.004150 798.354248,430.686951 798.458496,433.971039 
	C798.579590,437.787109 798.410645,441.614380 798.606689,445.424469 
	C798.649048,446.247223 799.711609,447.017426 800.304199,447.811829 
	C800.951782,447.064178 802.108398,446.348907 802.158386,445.563263 
	C802.368652,442.255188 802.223938,438.925873 802.255798,435.604797 
	C802.293396,431.687561 802.190247,427.768250 798.102478,425.678589 
	C793.920654,423.540863 790.067444,424.570068 786.891785,427.316040 
	C785.842102,426.488831 784.961609,425.795044 784.081116,425.101196 
	C783.539673,426.095734 782.998169,427.090240 782.463562,428.958862 
M739.777588,446.353210 
	C744.182739,440.549835 742.852844,436.587891 735.892883,434.750702 
	C734.289001,434.327301 732.540466,434.129669 731.152405,433.322571 
	C730.205933,432.772217 729.119019,431.220947 729.283936,430.339813 
	C729.460327,429.397583 731.099548,427.992432 731.981689,428.073853 
	C733.769287,428.238861 735.492310,429.234070 737.212341,429.957520 
	C738.459229,430.481964 739.658386,431.119812 740.878845,431.707092 
	C741.282776,431.075836 741.686707,430.444550 742.090637,429.813263 
	C739.976196,428.130890 738.030884,425.414185 735.703552,425.033661 
	C732.930481,424.580139 729.340637,425.403259 726.987793,426.986084 
	C723.626160,429.247528 724.497681,434.146606 728.203857,435.951263 
	C730.266357,436.955566 732.750610,437.104156 734.792236,438.137360 
	C736.172363,438.835815 737.112427,440.403778 738.249390,441.582733 
	C736.819519,442.699402 735.449280,444.607117 733.943848,444.720612 
	C732.285034,444.845703 730.492798,443.341644 728.775940,442.511627 
	C727.433411,441.862579 726.117310,441.159027 723.793396,439.970093 
	C726.850220,447.985779 731.898193,449.805603 739.777588,446.353210 
M979.957703,430.467743 
	C982.213745,426.367737 984.976746,427.180878 988.044128,429.518890 
	C989.039307,430.277374 990.333557,430.643555 991.490967,431.189178 
	C991.145203,429.743378 991.275208,427.783173 990.368225,426.944336 
	C987.121277,423.941681 983.067383,423.426270 979.380188,425.784912 
	C977.724243,426.844238 976.078674,429.444763 976.163086,431.265533 
	C976.245422,433.042694 978.239319,435.162292 979.946228,436.311371 
	C981.637878,437.450195 984.201294,437.232910 986.036011,438.240814 
	C987.368530,438.972870 988.136963,440.731781 989.156982,442.032806 
	C987.775452,442.996735 986.414429,444.697845 985.007263,444.736877 
	C983.270264,444.785095 981.471313,443.501953 979.743469,442.698669 
	C978.338318,442.045319 976.998535,441.251282 974.661865,440.002350 
	C977.034729,446.568756 980.268127,448.650330 985.715393,448.108612 
	C989.751587,447.707275 992.756531,445.944336 993.175720,441.535065 
	C993.577148,437.313080 990.686096,435.946045 987.252258,434.819458 
	C984.715210,433.987061 982.398987,432.481720 979.957703,430.467743 
M904.977844,434.489288 
	C904.980225,437.969849 904.854980,441.458099 905.064758,444.926117 
	C905.125732,445.934631 906.144653,446.885223 906.724487,447.862366 
	C907.458923,446.862732 908.811890,445.874786 908.830994,444.861603 
	C908.999939,435.914764 909.003357,426.962067 908.832458,418.015411 
	C908.813721,417.034027 907.391235,416.079498 906.619812,415.112518 
	C906.067871,416.101746 905.069946,417.077301 905.039062,418.082581 
	C904.881409,423.215546 904.973328,428.356171 904.977844,434.489288 
M1027.962524,427.857056 
	C1027.183228,426.926880 1026.403809,425.996704 1025.624512,425.066589 
	C1025.087036,426.092102 1024.112061,427.106323 1024.085327,428.144989 
	C1023.944336,433.608032 1023.939941,439.081116 1024.143433,444.541168 
	C1024.185303,445.666260 1025.311890,446.750916 1025.938477,447.854187 
	C1026.615845,446.802246 1027.837524,445.771057 1027.878540,444.694885 
	C1028.080322,439.401154 1027.968750,434.095520 1027.962524,427.857056 
M747.875854,437.480713 
	C747.887268,439.970367 747.732422,442.477386 747.989685,444.941345 
	C748.096741,445.966522 749.082214,446.899994 749.668213,447.875183 
	C750.366394,446.943451 751.639587,446.029205 751.668579,445.077087 
	C751.845398,439.273621 751.827698,433.458588 751.634216,427.655457 
	C751.604614,426.767761 750.327576,425.921692 749.627502,425.056396 
	C749.052734,425.882721 748.044006,426.677826 747.981934,427.540985 
	C747.768188,430.513855 747.885254,433.510529 747.875854,437.480713 
M898.206360,426.862549 
	C897.569946,426.293549 896.933533,425.724579 896.297180,425.155640 
	C895.762695,426.022034 894.785950,426.878204 894.765625,427.756439 
	C894.635010,433.407043 894.630432,439.064972 894.801941,444.713898 
	C894.832214,445.712982 895.883484,446.681061 896.463318,447.663452 
	C897.068604,446.696747 898.170166,445.743713 898.197205,444.761108 
	C898.352417,439.111908 898.252991,433.455688 898.206360,426.862549 
M819.440857,432.328156 
	C818.320374,434.805176 818.957397,436.639526 821.753235,436.742706 
	C822.564941,436.772705 823.445740,434.931549 824.294861,433.948181 
	C822.870239,433.255035 821.445679,432.561859 819.440857,432.328156 
M955.253723,431.598450 
	C955.089478,433.190796 954.925171,434.783142 954.760925,436.375488 
	C956.118530,435.967407 957.476135,435.559296 958.833740,435.151215 
	C957.862732,433.879639 956.891724,432.608063 955.253723,431.598450 
z"/>
<path fill="#F3F6F7" opacity="1.000000" stroke="none" 
	d="
M545.438965,387.544128 
	C541.375000,395.775330 537.446289,403.661163 533.697021,411.631439 
	C532.592346,413.979797 531.401489,415.263428 528.500549,415.062012 
	C523.368164,414.705627 517.158508,416.565857 513.345276,414.268707 
	C509.573456,411.996368 508.078552,405.794891 505.808289,401.206360 
	C497.479858,384.373505 489.244385,367.494659 480.378357,349.418884 
	C480.378357,377.431885 480.378357,404.199219 480.378357,431.359131 
	C472.323517,431.359131 464.761658,431.359131 456.864685,431.359131 
	C456.864685,391.133179 456.864685,350.718262 456.864685,309.886597 
	C465.597198,309.886597 474.235138,309.725647 482.854431,310.053680 
	C484.204865,310.105103 485.955658,312.139709 486.703125,313.659698 
	C498.068756,336.772095 509.295715,359.952728 520.566528,383.111816 
	C521.063599,384.133148 521.669678,385.101440 522.500916,386.587799 
	C532.476868,365.984100 542.236023,345.834167 551.988403,325.680939 
	C554.015869,321.491241 555.798645,317.160706 558.145508,313.159790 
	C559.015625,311.676392 561.148621,310.091522 562.763000,310.028900 
	C570.909424,309.712891 579.074707,309.883698 587.595215,309.883698 
	C587.595215,350.464020 587.595215,390.840546 587.595215,431.490051 
	C580.141479,431.490051 572.700928,431.490051 564.626343,431.490051 
	C564.626343,404.746521 564.626343,377.929779 564.626343,351.113037 
	C564.208862,351.011536 563.791321,350.910034 563.373840,350.808533 
	C557.463440,362.949341 551.553101,375.090149 545.438965,387.544128 
z"/>
<path fill="#F3F7F8" opacity="1.000000" stroke="none" 
	d="
M418.031494,309.871460 
	C423.493347,309.871704 428.461761,309.871704 433.717407,309.871704 
	C433.808258,311.495697 433.941986,312.776611 433.942474,314.057587 
	C433.952026,339.883698 433.986298,365.709930 433.904114,391.535797 
	C433.890381,395.850952 433.732788,400.229767 432.996002,404.466888 
	C430.435547,419.192047 422.006531,428.669495 407.292084,432.285400 
	C398.333557,434.486877 389.418610,434.224548 380.658722,431.544189 
	C364.323914,426.546112 354.695160,411.899170 356.034546,393.955231 
	C359.928497,393.955231 363.873871,393.955231 367.819275,393.955231 
	C371.607300,393.955231 375.395325,393.955231 379.447815,393.955231 
	C379.602295,395.685455 379.712891,396.982666 379.834747,398.278809 
	C380.684540,407.318939 385.472717,412.204712 393.974640,412.710419 
	C402.480927,413.216339 407.678253,408.892731 409.226929,399.689392 
	C409.775848,396.427216 409.940796,393.067474 409.945129,389.751862 
	C409.977295,365.092163 409.924835,340.432404 409.899384,315.772644 
	C409.897522,313.974457 409.899109,312.176270 409.899109,309.871185 
	C412.651520,309.871185 415.094788,309.871185 418.031494,309.871460 
z"/>
<path fill="#F2F5F6" opacity="1.000000" stroke="none" 
	d="
M292.971008,348.175171 
	C296.548798,337.809631 300.058350,327.851196 303.937256,316.844574 
	C318.645355,355.674530 332.942047,393.418365 347.461456,431.750183 
	C339.448853,431.750183 332.028687,431.898743 324.626465,431.601349 
	C323.417816,431.552795 321.750305,429.749084 321.212341,428.392731 
	C318.397156,421.294891 315.717621,414.132385 313.334351,406.879486 
	C312.383728,403.986603 311.003662,403.067596 307.998474,403.114105 
	C296.554565,403.291290 285.106232,403.185608 273.120422,403.185608 
	C275.125366,397.542267 276.741272,392.366913 278.871094,387.412476 
	C279.448853,386.068512 281.546936,384.600891 283.001678,384.542297 
	C290.257324,384.250214 297.531128,384.408813 305.224274,384.408813 
	C300.976501,372.057770 296.939636,360.320038 292.971008,348.175171 
z"/>
<path fill="#2E79EA" opacity="1.000000" stroke="none" 
	d="
M260.396179,343.268799 
	C264.122467,333.229675 267.775818,323.576324 271.214142,313.846954 
	C272.253815,310.904968 273.751709,309.651703 277.012512,309.807129 
	C282.810364,310.083588 288.630920,309.884827 295.306213,309.884827 
	C293.645905,314.958618 292.286041,319.474030 290.698730,323.907990 
	C278.300140,358.541779 265.822754,393.147369 253.495743,427.806549 
	C252.513168,430.569244 251.380402,431.874451 248.268463,431.771332 
	C241.511047,431.547363 234.741089,431.702240 227.119995,431.702240 
	C238.365967,401.796204 249.303360,372.710815 260.396179,343.268799 
z"/>
<path fill="#EFF2F4" opacity="1.000000" stroke="none" 
	d="
M947.040161,339.010803 
	C947.040588,355.783356 947.040588,372.058380 947.040588,388.551331 
	C943.584290,388.551331 940.652527,388.551331 937.132690,388.551331 
	C937.132690,374.006378 937.132690,359.523346 937.132690,345.040283 
	C936.781250,344.962555 936.429749,344.884796 936.078308,344.807068 
	C930.762878,355.211182 925.303528,365.545715 920.221619,376.062683 
	C918.737610,379.133789 916.870605,380.715912 913.747253,379.736298 
	C911.838196,379.137543 909.536316,377.881256 908.650452,376.247986 
	C903.819580,367.341064 899.383423,358.220398 894.785645,349.186462 
	C894.007019,347.656647 893.101990,346.191223 891.407471,344.958771 
	C891.407471,359.362274 891.407471,373.765778 891.407471,388.462341 
	C888.120667,388.462341 885.213928,388.462341 881.933472,388.462341 
	C881.933472,367.667542 881.933472,346.788330 881.933472,325.367645 
	C884.259338,325.367645 886.548157,325.540161 888.800415,325.326752 
	C892.088623,325.015198 893.801636,326.346100 895.254089,329.363037 
	C900.944946,341.183746 906.960449,352.848236 912.868225,364.564240 
	C913.309509,365.439392 913.852295,366.263336 914.528564,367.420166 
	C920.488464,355.369781 926.680054,343.785156 931.941284,331.792358 
	C934.328064,326.351715 937.546082,324.641479 942.923157,325.421967 
	C944.043945,325.584656 945.208496,325.445618 947.039673,325.445618 
	C947.039673,330.010437 947.039673,334.261871 947.040161,339.010803 
z"/>
<path fill="#367CE0" opacity="1.000000" stroke="none" 
	d="
M586.249023,454.595367 
	C586.731140,456.496887 586.896484,458.061768 587.091248,459.904968 
	C585.087341,460.004974 583.622498,460.141876 582.157593,460.142090 
	C465.397552,460.159912 348.637512,460.154144 231.877502,460.226593 
	C227.622269,460.229248 224.918121,459.512939 226.449814,453.990509 
	C228.169937,453.912140 229.954971,453.759735 231.740005,453.759705 
	C348.166870,453.755920 464.593719,453.762512 581.020569,453.792175 
	C582.657837,453.792603 584.294983,454.096466 586.249023,454.595367 
z"/>
<path fill="#EDF0F1" opacity="1.000000" stroke="none" 
	d="
M683.488892,384.646637 
	C681.570801,392.273712 675.879944,387.151245 671.323181,389.636566 
	C675.796631,377.505859 679.790100,366.651276 683.802551,355.803741 
	C687.198730,346.622498 690.790466,337.508270 693.935486,328.242218 
	C695.110596,324.779999 697.544861,325.157104 699.854553,325.482391 
	C702.422607,325.844055 705.710754,323.524841 707.347473,328.008118 
	C714.681946,348.098419 722.292664,368.087891 729.793457,388.086456 
	C729.405151,388.388489 729.192749,388.698547 728.970215,388.705963 
	C719.540771,389.020691 719.159546,389.133392 716.374268,379.981445 
	C714.747925,374.637573 712.391724,372.299835 706.646667,373.108551 
	C702.565613,373.683044 698.272888,373.730835 694.199768,373.144409 
	C688.770508,372.362701 686.306274,374.667786 685.264954,379.578949 
	C684.923218,381.190918 684.210693,382.724243 683.488892,384.646637 
M702.068970,340.467712 
	C701.665710,339.613434 701.262390,338.759155 700.570679,337.293793 
	C697.156128,346.877686 693.972290,355.814178 690.665222,365.096375 
	C697.627319,365.096375 704.051880,365.096375 710.975403,365.096375 
	C708.020752,356.959290 705.161682,349.085236 702.068970,340.467712 
z"/>
<path fill="#EFF2F4" opacity="1.000000" stroke="none" 
	d="
M788.521118,388.712463 
	C769.625977,393.833252 754.835022,379.839325 758.760803,360.515442 
	C761.132080,348.843353 770.014221,342.078613 782.184570,342.653900 
	C793.477295,343.187683 801.166992,350.479156 802.546204,362.073578 
	C802.759705,363.868408 802.575989,365.710449 802.575989,368.110901 
	C791.221741,368.110901 779.853210,368.110901 768.531616,368.110901 
	C768.154480,373.921112 770.729065,378.693756 775.329773,380.624664 
	C780.075378,382.616364 785.506714,383.091919 788.741882,378.894989 
	C792.477295,374.048950 796.746704,374.977814 801.720093,375.136963 
	C799.221558,381.673340 795.260254,386.257202 788.521118,388.712463 
M769.569336,357.239624 
	C769.041870,358.570587 768.514343,359.901581 767.747681,361.835968 
	C772.446045,361.835968 776.537842,361.835968 780.629639,361.835968 
	C784.672424,361.835968 788.715210,361.835968 793.035522,361.835968 
	C791.968506,355.918396 789.359863,352.138336 784.061646,350.949860 
	C778.186646,349.631958 773.194336,351.065338 769.569336,357.239624 
z"/>
<path fill="#EEF1F3" opacity="1.000000" stroke="none" 
	d="
M1092.755859,388.927795 
	C1076.524048,391.893219 1064.843628,383.998657 1063.380249,369.079010 
	C1062.440918,359.502106 1065.183472,351.150055 1073.871704,345.967499 
	C1081.931641,341.159729 1090.435791,341.046661 1098.396362,346.109131 
	C1107.022705,351.595123 1109.789307,360.125275 1108.588013,369.891052 
	C1107.432739,379.281250 1102.195068,385.699951 1092.755859,388.927795 
M1089.781494,380.954163 
	C1099.688232,378.240204 1101.416016,362.227448 1095.155029,355.170258 
	C1090.948608,350.428741 1083.918091,349.509674 1078.930664,353.144928 
	C1073.640015,357.001282 1071.725220,365.888519 1074.603149,373.230804 
	C1077.024292,379.407562 1081.285156,381.741241 1089.781494,380.954163 
z"/>
<path fill="#2F3131" opacity="1.000000" stroke="none" 
	d="
M627.029236,465.981171 
	C627.028992,409.827759 627.028442,354.170074 627.032227,298.512421 
	C627.032349,297.013367 626.730591,295.383789 627.225525,294.060333 
	C627.565674,293.150665 629.040344,292.142090 630.011230,292.138824 
	C630.980835,292.135529 632.397705,293.128967 632.812622,294.048920 
	C633.316162,295.165344 632.996704,296.662537 632.996826,297.994965 
	C633.000061,355.985565 632.999451,413.976196 632.997314,471.966797 
	C632.997314,473.132996 633.347168,474.496704 632.862549,475.413574 
	C632.302307,476.473602 630.999878,477.790405 630.015320,477.794006 
	C629.036926,477.797638 627.327942,476.402496 627.206055,475.457306 
	C626.825256,472.505371 627.043457,469.476166 627.029236,465.981171 
z"/>
<path fill="#EEF1F3" opacity="1.000000" stroke="none" 
	d="
M990.401123,355.032013 
	C990.399292,351.080841 990.399292,347.621826 990.399292,343.922058 
	C993.772339,343.922058 996.699219,343.922058 999.858826,343.922058 
	C999.858826,358.816681 999.858826,373.558716 999.858826,388.497742 
	C996.931274,388.497742 994.197083,388.497742 991.314636,388.497742 
	C991.137268,386.602478 990.984131,384.965942 990.778198,382.764465 
	C989.747009,383.618713 988.903931,384.216095 988.179626,384.933411 
	C982.677734,390.381775 976.100159,390.992462 969.206421,388.677368 
	C962.648376,386.475067 959.284729,381.193237 958.997925,374.609863 
	C958.557617,364.505096 958.882202,354.367035 958.882202,343.954590 
	C961.847107,343.954590 964.763367,343.954590 968.159363,343.954590 
	C968.159363,352.563721 968.017456,361.186707 968.198364,369.802887 
	C968.387939,378.830292 974.302795,383.508057 982.188293,381.030151 
	C987.262207,379.435760 989.575134,375.454559 989.992798,370.496124 
	C990.411133,365.529205 990.288513,360.516693 990.401123,355.032013 
z"/>
<path fill="#EDF0F2" opacity="1.000000" stroke="none" 
	d="
M1011.896606,364.000183 
	C1011.895508,357.031219 1011.895508,350.562195 1011.895508,343.857330 
	C1014.799927,343.857330 1017.391052,343.857330 1020.289307,343.857330 
	C1020.637878,345.865967 1020.961304,347.729553 1021.410522,350.318085 
	C1025.702637,344.670471 1031.039795,342.301025 1037.621216,342.668793 
	C1045.892334,343.130981 1052.148682,347.423798 1052.864990,355.631927 
	C1053.810059,366.461029 1053.097412,377.434845 1053.097412,388.584961 
	C1050.637085,388.584961 1047.724854,388.584961 1044.180176,388.584961 
	C1044.180176,381.666412 1044.188477,374.900513 1044.175171,368.134644 
	C1044.171143,366.138092 1044.169312,364.138123 1044.057739,362.145813 
	C1043.639771,354.688995 1040.399902,351.022583 1034.143921,350.851593 
	C1027.817261,350.678619 1022.534180,354.992371 1022.048096,361.644653 
	C1021.527710,368.764771 1021.804504,375.943298 1021.740051,383.096436 
	C1021.725159,384.745911 1021.737854,386.395630 1021.737854,388.422943 
	C1018.491089,388.422943 1015.470154,388.422943 1011.897644,388.422943 
	C1011.897644,380.381104 1011.897644,372.440613 1011.896606,364.000183 
z"/>
<path fill="#EFF1F2" opacity="1.000000" stroke="none" 
	d="
M810.089844,348.928864 
	C808.947266,347.155212 807.995911,345.690155 806.981384,344.127930 
	C813.940552,342.451202 819.103455,343.666626 822.196045,350.555725 
	C823.667969,353.834595 826.218262,356.629303 828.695801,360.251007 
	C831.112000,356.855988 833.769897,354.028687 835.362549,350.692841 
	C838.572693,343.968842 843.656616,342.413208 850.818726,344.253113 
	C846.489441,350.286163 842.414856,356.422882 837.835144,362.156158 
	C835.486084,365.096863 835.770203,367.185211 837.849487,369.928650 
	C842.340759,375.854584 846.614319,381.945496 851.055908,388.077789 
	C841.747681,389.996033 840.982361,389.675262 835.937378,382.224609 
	C833.618469,378.799957 831.237610,375.417297 828.630737,371.648254 
	C826.112244,375.306305 823.848022,378.542267 821.638428,381.815094 
	C816.717529,389.103821 816.728638,389.111328 806.206604,388.566711 
	C811.666687,380.780762 816.828796,373.419708 822.128479,365.862427 
	C818.159058,360.292267 814.220093,354.764862 810.089844,348.928864 
z"/>
<path fill="#EDF0F2" opacity="1.000000" stroke="none" 
	d="
M1140.960449,388.780579 
	C1132.471924,388.779694 1124.477417,388.779694 1116.256714,388.779694 
	C1115.176147,384.470734 1115.560791,380.853882 1118.626587,377.283325 
	C1125.550415,369.219543 1132.117798,360.849701 1139.227295,352.116547 
	C1131.506104,352.116547 1124.161133,352.116547 1116.496948,352.116547 
	C1116.496948,349.238831 1116.496948,346.827789 1116.496948,344.052002 
	C1127.800781,344.052002 1139.191895,344.052002 1150.820801,344.052002 
	C1151.942871,348.251740 1150.930298,351.758972 1147.941406,355.237762 
	C1141.038940,363.271515 1134.489624,371.608582 1127.165161,380.598145 
	C1135.888306,380.598145 1143.614624,380.598145 1151.546875,380.598145 
	C1151.546875,383.464905 1151.546875,385.861206 1151.546875,388.781433 
	C1148.031738,388.781433 1144.743164,388.781433 1140.960449,388.780579 
z"/>
<path fill="#EDF0F2" opacity="1.000000" stroke="none" 
	d="
M737.982788,361.000000 
	C737.982788,348.533813 737.982788,336.567627 737.982788,324.249451 
	C741.254028,324.249451 744.288696,324.249451 747.609741,324.249451 
	C747.609741,345.581940 747.609741,366.818054 747.609741,388.403046 
	C744.576599,388.403046 741.533691,388.403046 737.982788,388.403046 
	C737.982788,379.371643 737.982788,370.435822 737.982788,361.000000 
z"/>
<path fill="#8D9499" opacity="1.000000" stroke="none" 
	d="
M759.980286,427.118958 
	C766.092346,425.916321 771.937378,424.993805 777.569153,424.104919 
	C776.432068,428.955353 776.345947,433.018616 774.496643,435.981201 
	C773.143127,438.149567 769.549927,439.064697 766.804871,440.163391 
	C765.251648,440.785065 763.395264,440.649292 761.675415,440.854675 
	C761.679260,441.467712 761.683105,442.080750 761.687012,442.693787 
	C764.166504,442.966614 766.643738,443.262238 769.125977,443.507080 
	C773.124817,443.901459 776.469116,445.352936 776.636353,449.892853 
	C776.804443,454.457001 773.770569,456.996185 769.627563,457.554504 
	C766.773132,457.939209 763.597046,457.677948 760.887085,456.756866 
	C759.191223,456.180481 756.906555,453.808777 756.950317,452.302612 
	C757.081909,447.772736 758.225403,443.272308 759.212036,437.327026 
	C757.871399,435.114319 756.612122,431.293488 759.980286,427.118958 
M767.952148,446.357880 
	C764.513123,446.279175 760.177795,445.364594 760.496765,450.701630 
	C760.584717,452.173401 763.939026,454.573212 765.755920,454.538269 
	C768.105408,454.493073 770.416199,452.432800 772.743652,451.240143 
	C771.404785,449.669098 770.065979,448.098022 767.952148,446.357880 
M763.338440,428.765747 
	C763.186035,431.119568 762.097412,434.168610 763.169861,435.612854 
	C764.069824,436.824768 767.798401,436.884613 769.683411,436.076080 
	C770.896606,435.555634 772.072937,431.422577 771.464355,430.860992 
	C769.819214,429.343018 767.217834,428.850922 764.975403,428.006073 
	C764.734375,427.915283 764.359070,428.180939 763.338440,428.765747 
z"/>
<path fill="#8F989E" opacity="1.000000" stroke="none" 
	d="
M934.941162,447.606506 
	C933.711731,446.997009 932.870667,446.361816 931.940308,445.659180 
	C925.420715,449.177582 920.479004,448.944397 916.856934,444.834412 
	C913.349792,440.854797 912.994507,433.419220 916.098450,428.959015 
	C919.437256,424.161377 924.350342,423.466064 932.565491,426.894043 
	C932.565491,422.957275 932.565491,419.206696 932.565491,415.456085 
	C932.961853,415.184845 933.358215,414.913605 933.754578,414.642334 
	C934.666199,415.470398 936.358459,416.287506 936.370239,417.128204 
	C936.507690,426.938080 936.402588,436.751556 936.301208,446.563507 
	C936.297729,446.905914 935.667603,447.241821 934.941162,447.606506 
M930.905762,430.650299 
	C927.882141,427.223053 924.369568,426.882874 920.762939,429.452545 
	C917.614563,431.695679 916.836304,437.670044 919.069336,441.287994 
	C921.066650,444.523987 924.026001,445.550873 927.622742,444.306671 
	C931.596130,442.932098 933.357544,439.052338 932.323486,434.091858 
	C932.124451,433.137329 931.662903,432.237518 930.905762,430.650299 
z"/>
<path fill="#888F96" opacity="1.000000" stroke="none" 
	d="
M1034.209229,429.385101 
	C1034.673828,427.692291 1035.136963,426.447723 1035.600098,425.203186 
	C1036.587646,425.693695 1037.575195,426.184204 1039.044800,426.914154 
	C1045.158813,423.524384 1050.045166,423.726562 1053.878662,427.967987 
	C1057.428711,431.895782 1057.933594,438.594391 1055.035645,443.320099 
	C1051.900391,448.432831 1047.708252,449.178619 1038.244507,446.022095 
	C1038.244507,448.485352 1038.507690,450.810028 1038.155640,453.037415 
	C1037.904175,454.627838 1036.826538,456.087677 1036.117554,457.605804 
	C1035.487183,456.151642 1034.346802,454.709778 1034.311523,453.241333 
	C1034.124023,445.442352 1034.213867,437.636719 1034.209229,429.385101 
M1051.961060,441.138275 
	C1052.132446,438.406372 1053.174927,435.307953 1052.224121,433.048340 
	C1051.319214,430.898163 1048.488281,428.616943 1046.214478,428.265167 
	C1044.185059,427.951141 1041.144287,429.667572 1039.642578,431.422882 
	C1036.855835,434.680145 1037.815063,440.761322 1041.030884,443.095856 
	C1044.828369,445.852539 1048.438599,445.413391 1051.961060,441.138275 
z"/>
<path fill="#8D9499" opacity="1.000000" stroke="none" 
	d="
M687.357544,425.782349 
	C688.556641,425.669647 690.094299,425.437897 690.128662,425.066833 
	C690.357422,422.598175 690.077515,420.077301 690.372253,417.622528 
	C690.483765,416.693726 691.680359,415.895203 692.382385,415.037231 
	C692.966370,415.831390 694.049133,416.619720 694.058472,417.420593 
	C694.174500,427.341217 694.134277,437.263580 694.134277,446.484680 
	C689.935608,447.078400 686.291321,447.749756 682.616516,448.073425 
	C678.140198,448.467682 674.844116,446.293030 673.024353,442.346771 
	C670.791748,437.505585 670.822937,432.574432 674.416443,428.319427 
	C677.811646,424.299011 682.159790,423.520630 687.357544,425.782349 
M675.744385,434.796417 
	C675.822754,442.289581 679.289856,446.036987 684.745056,444.431671 
	C689.524292,443.025208 690.360046,439.267487 690.124451,434.970917 
	C689.915527,431.160126 687.911743,428.631866 684.188232,428.043243 
	C679.700745,427.333771 676.894226,429.522247 675.744385,434.796417 
z"/>
<path fill="#8F989E" opacity="1.000000" stroke="none" 
	d="
M861.509827,428.648865 
	C862.462280,431.955719 863.845276,434.983276 863.765381,437.971710 
	C863.568726,445.331177 855.590515,452.285156 846.112366,445.556396 
	C844.936829,446.342194 843.897400,447.037018 842.857910,447.731873 
	C842.399353,446.801178 841.551636,445.874298 841.542297,444.939148 
	C841.445190,435.135376 841.482300,425.330322 841.482300,415.532196 
	C846.427185,414.027374 845.071716,417.579163 845.203674,419.656952 
	C845.358215,422.090485 845.239807,424.541321 845.239807,427.592072 
	C851.151001,423.802826 856.487915,422.938141 861.509827,428.648865 
M860.060974,434.854645 
	C859.367554,430.807312 857.098450,427.611542 852.954773,428.187469 
	C850.413635,428.540649 846.824524,430.965576 846.209351,433.161499 
	C845.416809,435.990295 846.351440,440.049469 848.051697,442.553864 
	C849.094849,444.090210 853.158081,444.546722 855.520142,443.999420 
	C859.495728,443.078278 860.224121,439.384369 860.060974,434.854645 
z"/>
<path fill="#888F96" opacity="1.000000" stroke="none" 
	d="
M1000.141479,447.825684 
	C999.219604,446.563324 998.323547,445.312531 998.305786,444.049408 
	C998.186462,435.560913 998.169067,427.067871 998.357422,418.581635 
	C998.383911,417.388702 999.713379,416.224762 1000.439697,415.047424 
	C1001.004150,416.200592 1001.944214,417.318573 1002.056213,418.514099 
	C1002.303284,421.151459 1002.133057,423.827972 1002.133057,426.442230 
	C1002.522827,426.631439 1002.902710,426.962189 1003.071106,426.876648 
	C1012.727234,421.970917 1018.014587,425.142426 1018.110718,435.941193 
	C1018.137390,438.937408 1018.246521,441.945740 1018.011536,444.924377 
	C1017.930847,445.947479 1016.916748,446.896942 1016.328979,447.880005 
	C1015.617126,446.842316 1014.375488,445.846130 1014.290283,444.759308 
	C1014.004700,441.117096 1014.178528,437.441376 1014.087219,433.780701 
	C1014.008789,430.636780 1012.898987,428.147522 1009.306213,427.934387 
	C1005.858215,427.729889 1003.324036,429.379608 1002.780579,432.787109 
	C1002.209229,436.369812 1002.428284,440.071808 1002.054260,443.696136 
	C1001.908264,445.110474 1001.087219,446.455139 1000.141479,447.825684 
z"/>
<path fill="#888F96" opacity="1.000000" stroke="none" 
	d="
M872.252747,429.387634 
	C872.265808,432.831360 872.192749,435.825928 872.312744,438.812714 
	C872.447998,442.179382 873.828674,444.754608 877.616028,444.702118 
	C881.195129,444.652527 883.703796,442.766022 884.031860,439.054962 
	C884.352966,435.423065 884.021179,431.731079 884.386536,428.106812 
	C884.508850,426.893280 885.895630,425.807159 886.704468,424.662811 
	C887.203857,424.927765 887.703308,425.192719 888.202698,425.457703 
	C888.202698,431.744263 888.262695,438.031952 888.147705,444.316406 
	C888.126892,445.451660 887.387634,446.573730 886.980103,447.701904 
	C885.809448,447.088043 884.638794,446.474213 883.468140,445.860352 
	C883.562805,446.197601 883.657471,446.534821 883.752197,446.872070 
	C880.233276,447.085541 876.487854,448.155945 873.251465,447.300537 
	C868.988037,446.173645 868.401489,441.841919 868.292786,437.875763 
	C868.210876,434.886383 868.067932,431.877869 868.322266,428.909576 
	C868.437256,427.567108 869.451355,426.301697 870.057495,425.001312 
	C870.788940,426.312561 871.520386,427.623810 872.252747,429.387634 
z"/>
<path fill="#8D9499" opacity="1.000000" stroke="none" 
	d="
M719.872437,431.332062 
	C720.213440,433.299805 720.442871,434.899200 720.770691,437.183655 
	C714.727112,437.183655 709.180176,437.183655 703.296265,437.183655 
	C703.594849,442.157562 705.888306,445.034668 710.027527,444.669647 
	C713.129700,444.396088 716.066528,442.248322 719.357056,440.812836 
	C717.736816,446.309906 714.321594,448.618469 709.049500,448.156464 
	C703.781738,447.694855 700.118286,443.795898 699.327026,437.809174 
	C698.552612,431.949768 701.519470,426.727356 706.584656,425.033936 
	C711.893616,423.259003 716.478516,425.322388 719.872437,431.332062 
M712.761963,428.267365 
	C706.480103,427.505554 704.662842,428.604706 703.579224,433.763489 
	C707.887573,433.763489 712.198425,433.763489 717.775757,433.763489 
	C715.864075,431.490967 714.663391,430.063538 712.761963,428.267365 
z"/>
<path fill="#8F989E" opacity="1.000000" stroke="none" 
	d="
M782.460083,428.521790 
	C782.998169,427.090240 783.539673,426.095734 784.081177,425.101196 
	C784.961609,425.795044 785.842102,426.488831 786.891785,427.316040 
	C790.067444,424.570068 793.920654,423.540863 798.102478,425.678589 
	C802.190247,427.768250 802.293396,431.687561 802.255798,435.604797 
	C802.223938,438.925873 802.368652,442.255188 802.158386,445.563263 
	C802.108398,446.348907 800.951782,447.064178 800.304199,447.811829 
	C799.711609,447.017426 798.649048,446.247223 798.606689,445.424469 
	C798.410645,441.614380 798.579590,437.787109 798.458496,433.971039 
	C798.354248,430.686951 797.215271,428.004150 793.374329,427.827972 
	C789.659241,427.657623 787.251709,429.595001 786.773865,433.203827 
	C786.319336,436.636627 786.627747,440.166809 786.241760,443.613983 
	C786.080688,445.052917 784.991516,446.387939 784.324341,447.770203 
	C783.728638,446.315704 782.692566,444.883331 782.618164,443.402649 
	C782.376953,438.597565 782.488098,433.774811 782.460083,428.521790 
z"/>
<path fill="#8D9499" opacity="1.000000" stroke="none" 
	d="
M739.496216,446.582642 
	C731.898193,449.805603 726.850220,447.985779 723.793396,439.970093 
	C726.117310,441.159027 727.433411,441.862579 728.775940,442.511627 
	C730.492798,443.341644 732.285034,444.845703 733.943848,444.720612 
	C735.449280,444.607117 736.819519,442.699402 738.249390,441.582764 
	C737.112427,440.403778 736.172363,438.835815 734.792236,438.137360 
	C732.750610,437.104156 730.266357,436.955566 728.203857,435.951263 
	C724.497681,434.146606 723.626160,429.247528 726.987793,426.986084 
	C729.340637,425.403259 732.930481,424.580139 735.703552,425.033661 
	C738.030884,425.414185 739.976196,428.130890 742.090637,429.813263 
	C741.686707,430.444550 741.282776,431.075836 740.878845,431.707092 
	C739.658386,431.119812 738.459229,430.481964 737.212341,429.957520 
	C735.492310,429.234070 733.769287,428.238861 731.981689,428.073853 
	C731.099548,427.992432 729.460327,429.397583 729.283936,430.339813 
	C729.119019,431.220947 730.205933,432.772217 731.152405,433.322571 
	C732.540466,434.129669 734.289001,434.327301 735.892883,434.750702 
	C742.852844,436.587891 744.182739,440.549835 739.496216,446.582642 
z"/>
<path fill="#888F96" opacity="1.000000" stroke="none" 
	d="
M979.971069,430.871948 
	C982.398987,432.481720 984.715210,433.987061 987.252258,434.819458 
	C990.686096,435.946045 993.577148,437.313080 993.175720,441.535065 
	C992.756531,445.944336 989.751587,447.707275 985.715393,448.108612 
	C980.268127,448.650330 977.034729,446.568756 974.661865,440.002350 
	C976.998535,441.251282 978.338318,442.045319 979.743469,442.698669 
	C981.471313,443.501953 983.270264,444.785095 985.007263,444.736877 
	C986.414429,444.697845 987.775452,442.996735 989.156982,442.032837 
	C988.136963,440.731781 987.368530,438.972870 986.036011,438.240814 
	C984.201294,437.232910 981.637878,437.450195 979.946228,436.311371 
	C978.239319,435.162292 976.245422,433.042694 976.163086,431.265533 
	C976.078674,429.444763 977.724243,426.844238 979.380188,425.784912 
	C983.067383,423.426270 987.121277,423.941681 990.368225,426.944336 
	C991.275208,427.783173 991.145203,429.743378 991.490967,431.189209 
	C990.333557,430.643555 989.039307,430.277374 988.044128,429.518890 
	C984.976746,427.180878 982.213745,426.367737 979.971069,430.871948 
z"/>
<path fill="#888F96" opacity="1.000000" stroke="none" 
	d="
M904.977905,433.991699 
	C904.973328,428.356171 904.881409,423.215546 905.039062,418.082581 
	C905.069946,417.077301 906.067871,416.101746 906.619812,415.112518 
	C907.391235,416.079498 908.813721,417.034027 908.832458,418.015411 
	C909.003357,426.962067 908.999939,435.914764 908.830994,444.861603 
	C908.811890,445.874786 907.458923,446.862732 906.724487,447.862366 
	C906.144653,446.885223 905.125732,445.934631 905.064758,444.926117 
	C904.854980,441.458099 904.980225,437.969849 904.977905,433.991699 
z"/>
<path fill="#888F96" opacity="1.000000" stroke="none" 
	d="
M1027.965088,428.325562 
	C1027.968750,434.095520 1028.080322,439.401154 1027.878540,444.694885 
	C1027.837524,445.771057 1026.615845,446.802246 1025.938477,447.854187 
	C1025.311890,446.750916 1024.185303,445.666260 1024.143433,444.541168 
	C1023.939941,439.081116 1023.944336,433.608032 1024.085327,428.144989 
	C1024.112061,427.106323 1025.087036,426.092102 1025.624512,425.066589 
	C1026.403809,425.996704 1027.183228,426.926880 1027.965088,428.325562 
z"/>
<path fill="#888F96" opacity="1.000000" stroke="none" 
	d="
M747.876099,436.989410 
	C747.885254,433.510529 747.768188,430.513855 747.981934,427.540985 
	C748.044006,426.677826 749.052734,425.882721 749.627502,425.056396 
	C750.327576,425.921692 751.604614,426.767761 751.634216,427.655457 
	C751.827698,433.458588 751.845398,439.273621 751.668579,445.077087 
	C751.639587,446.029205 750.366394,446.943451 749.668213,447.875183 
	C749.082214,446.899994 748.096741,445.966522 747.989685,444.941345 
	C747.732422,442.477386 747.887268,439.970367 747.876099,436.989410 
z"/>
<path fill="#8F989E" opacity="1.000000" stroke="none" 
	d="
M898.223145,427.332214 
	C898.252991,433.455688 898.352417,439.111908 898.197205,444.761108 
	C898.170166,445.743713 897.068604,446.696747 896.463318,447.663452 
	C895.883484,446.681061 894.832214,445.712982 894.801941,444.713898 
	C894.630432,439.064972 894.635010,433.407043 894.765625,427.756439 
	C894.785950,426.878204 895.762695,426.022034 896.297119,425.155640 
	C896.933533,425.724579 897.569946,426.293549 898.223145,427.332214 
z"/>
<path fill="#8D9499" opacity="1.000000" stroke="none" 
	d="
M819.730957,432.098419 
	C821.445679,432.561859 822.870239,433.255035 824.294800,433.948181 
	C823.445740,434.931549 822.564941,436.772705 821.753235,436.742706 
	C818.957397,436.639526 818.320374,434.805176 819.730957,432.098419 
z"/>
<path fill="#888F96" opacity="1.000000" stroke="none" 
	d="
M955.587219,431.467468 
	C956.891724,432.608063 957.862732,433.879639 958.833740,435.151184 
	C957.476135,435.559296 956.118530,435.967407 954.760925,436.375488 
	C954.925171,434.783142 955.089478,433.190796 955.587219,431.467468 
z"/>
<path fill="#0a0a0a" opacity="1.000000" stroke="none" 
	d="
M702.185791,340.839417 
	C705.161682,349.085236 708.020752,356.959290 710.975403,365.096375 
	C704.051880,365.096375 697.627319,365.096375 690.665222,365.096375 
	C693.972290,355.814178 697.156128,346.877686 700.570679,337.293793 
	C701.262390,338.759155 701.665710,339.613434 702.185791,340.839417 
z"/>
<path fill="#0a0a0a" opacity="1.000000" stroke="none" 
	d="
M769.754089,356.910461 
	C773.194336,351.065338 778.186646,349.631958 784.061646,350.949860 
	C789.359863,352.138336 791.968506,355.918396 793.035522,361.835968 
	C788.715210,361.835968 784.672424,361.835968 780.629639,361.835968 
	C776.537842,361.835968 772.446045,361.835968 767.747681,361.835968 
	C768.514343,359.901581 769.041870,358.570587 769.754089,356.910461 
z"/>
<path fill="#0a0a0a" opacity="1.000000" stroke="none" 
	d="
M1089.368896,381.023041 
	C1081.285156,381.741241 1077.024292,379.407562 1074.603149,373.230804 
	C1071.725220,365.888519 1073.640015,357.001282 1078.930664,353.144928 
	C1083.918091,349.509674 1090.948608,350.428741 1095.155029,355.170258 
	C1101.416016,362.227448 1099.688232,378.240204 1089.368896,381.023041 
z"/>
<path fill="#0a0a0a" opacity="1.000000" stroke="none" 
	d="
M768.339600,446.442413 
	C770.065979,448.098022 771.404785,449.669098 772.743652,451.240143 
	C770.416199,452.432800 768.105408,454.493073 765.755920,454.538269 
	C763.939026,454.573212 760.584717,452.173401 760.496765,450.701630 
	C760.177795,445.364594 764.513123,446.279175 768.339600,446.442413 
z"/>
<path fill="#0a0a0a" opacity="1.000000" stroke="none" 
	d="
M763.692261,428.523499 
	C764.359070,428.180939 764.734375,427.915283 764.975403,428.006073 
	C767.217834,428.850922 769.819214,429.343018 771.464355,430.860992 
	C772.072937,431.422577 770.896606,435.555634 769.683411,436.076080 
	C767.798401,436.884613 764.069824,436.824768 763.169861,435.612854 
	C762.097412,434.168610 763.186035,431.119568 763.692261,428.523499 
z"/>
<path fill="#0a0a0a" opacity="1.000000" stroke="none" 
	d="
M931.114136,430.981384 
	C931.662903,432.237518 932.124451,433.137329 932.323486,434.091858 
	C933.357544,439.052338 931.596130,442.932098 927.622742,444.306671 
	C924.026001,445.550873 921.066650,444.523987 919.069336,441.287994 
	C916.836304,437.670044 917.614563,431.695679 920.762939,429.452545 
	C924.369568,426.882874 927.882141,427.223053 931.114136,430.981384 
z"/>
<path fill="#0a0a0a" opacity="1.000000" stroke="none" 
	d="
M1051.764282,441.479095 
	C1048.438599,445.413391 1044.828369,445.852539 1041.030884,443.095856 
	C1037.815063,440.761322 1036.855835,434.680145 1039.642578,431.422882 
	C1041.144287,429.667572 1044.185059,427.951141 1046.214478,428.265167 
	C1048.488281,428.616943 1051.319214,430.898163 1052.224121,433.048340 
	C1053.174927,435.307953 1052.132446,438.406372 1051.764282,441.479095 
z"/>
<path fill="#0a0a0a" opacity="1.000000" stroke="none" 
	d="
M675.808594,434.376831 
	C676.894226,429.522247 679.700745,427.333771 684.188232,428.043243 
	C687.911743,428.631866 689.915527,431.160126 690.124451,434.970917 
	C690.360046,439.267487 689.524292,443.025208 684.745056,444.431671 
	C679.289856,446.036987 675.822754,442.289581 675.808594,434.376831 
z"/>
<path fill="#0a0a0a" opacity="1.000000" stroke="none" 
	d="
M860.085693,435.265900 
	C860.224121,439.384369 859.495728,443.078278 855.520142,443.999420 
	C853.158081,444.546722 849.094849,444.090210 848.051697,442.553864 
	C846.351440,440.049469 845.416809,435.990295 846.209351,433.161499 
	C846.824524,430.965576 850.413635,428.540649 852.954773,428.187469 
	C857.098450,427.611542 859.367554,430.807312 860.085693,435.265900 
z"/>
<path fill="#0a0a0a" opacity="1.000000" stroke="none" 
	d="
M713.112305,428.451752 
	C714.663391,430.063538 715.864075,431.490967 717.775757,433.763489 
	C712.198425,433.763489 707.887573,433.763489 703.579224,433.763489 
	C704.662842,428.604706 706.480103,427.505554 713.112305,428.451752 
z"/>
</svg>